<?xml version="1.0" encoding="UTF-8" standalone="no"?>
<svg width="193px" height="58px" viewBox="0 0 193 58" version="1.1" xmlns="http://www.w3.org/2000/svg" xmlns:xlink="http://www.w3.org/1999/xlink" xmlns:sketch="http://www.bohemiancoding.com/sketch/ns">
    <!-- Generator: Sketch 3.3.2 (12043) - http://www.bohemiancoding.com/sketch -->
    <title>Artboard 1</title>
    <desc>Created with Sketch.</desc>
    <defs></defs>
    <g id="Page-1" stroke="none" stroke-width="1" fill="none" fill-rule="evenodd" sketch:type="MSPage">
        <g id="Artboard-1" sketch:type="MSArtboardGroup">
            <g id="Download_on_the_App_Store_Badge_US-UK_135x40" sketch:type="MSLayerGroup" transform="translate(1.000000, 0.703704)">
                <g id="Group" sketch:type="MSShapeGroup">
                    <g>
                        <path d="M184.204644,56.5925926 L6.69065926,56.5925926 C3.00223704,56.5925926 0,53.5818667 0,49.8962741 L0,6.68641481 C0,2.99940741 3.00223704,0 6.69065926,0 L184.204644,0 C187.891652,0 191,2.99940741 191,6.68641481 L191,49.8962741 C191,53.5818667 187.891652,56.5925926 184.204644,56.5925926 L184.204644,56.5925926 L184.204644,56.5925926 Z" id="Shape" fill="#A6A6A6"></path>
                        <path d="M189.630459,49.8976889 C189.630459,52.891437 187.205467,55.3164296 184.206059,55.3164296 L6.69065926,55.3164296 C3.69266667,55.3164296 1.25918519,52.891437 1.25918519,49.8976889 L1.25918519,6.685 C1.25918519,3.69266667 3.69266667,1.25918519 6.69065926,1.25918519 L184.204644,1.25918519 C187.205467,1.25918519 189.629044,3.69266667 189.629044,6.685 L189.630459,49.8976889 L189.630459,49.8976889 Z" id="Shape" fill="#000000"></path>
                        <g transform="translate(16.977778, 8.488889)" id="Shape" fill="#FFFFFF">
                            <path d="M25.647763,19.5018074 C25.6067333,14.9418593 29.3814593,12.7234296 29.5540667,12.6201481 C27.4162815,9.50331111 24.1027852,9.07745185 22.9383926,9.0434963 C20.1554519,8.75062963 17.4559852,10.7087333 16.0383407,10.7087333 C14.5924,10.7087333 12.4093407,9.07179259 10.0565037,9.1198963 C7.0288,9.16658519 4.19634074,10.9195407 2.64287407,13.6416444 C-0.563096296,19.191963 1.82794074,27.3483704 4.8995037,31.8347481 C6.43599259,34.0319556 8.23139259,36.4852444 10.5814,36.3989407 C12.8804741,36.3041481 13.7392667,34.9331926 16.5137185,34.9331926 C19.2627037,34.9331926 20.0691481,36.3989407 22.4658444,36.343763 C24.9332815,36.3041481 26.4867481,34.1366519 27.9694741,31.919637 C29.7450667,29.4012667 30.4581333,26.9210963 30.4864296,26.793763 C30.4284222,26.7739556 25.6944519,24.967237 25.647763,19.5018074 L25.647763,19.5018074 Z"></path>
                            <path d="M21.1203556,6.09219259 C22.3569037,4.5458 23.202963,2.44197037 22.9681037,0.307014815 C21.178363,0.386244444 18.9401259,1.54497778 17.6512296,3.05741481 C16.5108889,4.39017037 15.4922222,6.57464444 15.7553778,8.62895556 C17.7658296,8.77892593 19.8300444,7.61453333 21.1203556,6.09219259 L21.1203556,6.09219259 Z"></path>
                        </g>
                        <g transform="translate(59.422222, 25.466667)" id="Shape" fill="#FFFFFF">
                            <path d="M16.4755185,19.1056593 L13.2624741,19.1056593 L11.5024444,13.5751481 L5.38478519,13.5751481 L3.70822963,19.1056593 L0.580074074,19.1056593 L6.64114074,0.277303704 L10.3847407,0.277303704 L16.4755185,19.1056593 L16.4755185,19.1056593 Z M10.9718889,11.2548519 L9.38022222,6.33837037 C9.21185926,5.83611111 8.89635556,4.65332593 8.43088148,2.79142963 L8.37428889,2.79142963 C8.18894815,3.59221481 7.89042222,4.775 7.48012593,6.33837037 L5.91675556,11.2548519 L10.9718889,11.2548519 L10.9718889,11.2548519 Z"></path>
                            <path d="M32.0625333,12.1504296 C32.0625333,14.4594074 31.4386,16.2845185 30.1907333,17.6243481 C29.0730296,18.817037 27.6850963,19.4126741 26.0283481,19.4126741 C24.2400222,19.4126741 22.9553704,18.7703481 22.1729778,17.4856963 L22.1163852,17.4856963 L22.1163852,24.6375852 L19.1,24.6375852 L19.1,9.9984963 C19.1,8.5468963 19.0618,7.0570963 18.9882296,5.5290963 L21.6410074,5.5290963 L21.8093704,7.68102963 L21.865963,7.68102963 C22.8718963,6.05965185 24.3984815,5.25037778 26.4471333,5.25037778 C28.0487037,5.25037778 29.3857037,5.8828 30.4553037,7.14905926 C31.5277333,8.41673333 32.0625333,10.0833852 32.0625333,12.1504296 L32.0625333,12.1504296 Z M28.9895556,12.2607852 C28.9895556,10.9393481 28.6924444,9.84994074 28.0953926,8.99256296 C27.443163,8.0984 26.5673926,7.65131852 25.4694963,7.65131852 C24.7253037,7.65131852 24.0490222,7.90032593 23.4448963,8.39126667 C22.8393556,8.88645185 22.4432074,9.53302222 22.2578667,10.3338074 C22.1644889,10.7073185 22.1178,11.0129185 22.1178,11.253437 L22.1178,13.5171407 C22.1178,14.5046815 22.4205704,15.3380074 23.0261111,16.0185333 C23.6316519,16.6990593 24.4182889,17.0386148 25.3860222,17.0386148 C26.5221185,17.0386148 27.4063778,16.6000222 28.0388,15.7256667 C28.672637,14.8498963 28.9895556,13.6954074 28.9895556,12.2607852 L28.9895556,12.2607852 Z"></path>
                            <path d="M47.6778444,12.1504296 C47.6778444,14.4594074 47.0539111,16.2845185 45.8046296,17.6243481 C44.6883407,18.817037 43.3004074,19.4126741 41.6436593,19.4126741 C39.8553333,19.4126741 38.5706815,18.7703481 37.7897037,17.4856963 L37.7331111,17.4856963 L37.7331111,24.6375852 L34.7167259,24.6375852 L34.7167259,9.9984963 C34.7167259,8.5468963 34.6785259,7.0570963 34.6049556,5.5290963 L37.2577333,5.5290963 L37.4260963,7.68102963 L37.4826889,7.68102963 C38.4872074,6.05965185 40.0137926,5.25037778 42.0638593,5.25037778 C43.6640148,5.25037778 45.0010148,5.8828 46.0734444,7.14905926 C47.1416296,8.41673333 47.6778444,10.0833852 47.6778444,12.1504296 L47.6778444,12.1504296 Z M44.6048667,12.2607852 C44.6048667,10.9393481 44.3063407,9.84994074 43.7092889,8.99256296 C43.0570593,8.0984 42.1841185,7.65131852 41.0848074,7.65131852 C40.3392,7.65131852 39.6643333,7.90032593 39.0587926,8.39126667 C38.4532519,8.88645185 38.0585185,9.53302222 37.8731778,10.3338074 C37.7812148,10.7073185 37.7331111,11.0129185 37.7331111,11.253437 L37.7331111,13.5171407 C37.7331111,14.5046815 38.0358815,15.3380074 38.6385926,16.0185333 C39.2441333,16.6976444 40.0307704,17.0386148 41.0013333,17.0386148 C42.1374296,17.0386148 43.0216889,16.6000222 43.6541111,15.7256667 C44.2879481,14.8498963 44.6048667,13.6954074 44.6048667,12.2607852 L44.6048667,12.2607852 Z"></path>
                            <path d="M65.1366593,13.8255704 C65.1366593,15.4271407 64.580637,16.7301852 63.4643481,17.7361185 C62.2377037,18.8354296 60.5300222,19.3843778 58.3356444,19.3843778 C56.3096296,19.3843778 54.6854222,18.9938889 53.4559481,18.2114963 L54.1548667,15.6973704 C55.4791333,16.4981556 56.9321481,16.899963 58.5153259,16.899963 C59.6514222,16.899963 60.5356815,16.6424667 61.1709333,16.1303037 C61.8033556,15.6181407 62.1188593,14.9305407 62.1188593,14.073163 C62.1188593,13.309163 61.8585333,12.6654222 61.3364667,12.1433556 C60.8172296,11.6212889 59.9499481,11.1360074 58.7388667,10.6875111 C55.4423481,9.45803704 53.7955037,7.65697778 53.7955037,5.28857778 C53.7955037,3.74077037 54.3727481,2.47168148 55.5286519,1.48414074 C56.6803111,0.495185185 58.2168,0.00141481481 60.1381185,0.00141481481 C61.8514593,0.00141481481 63.274763,0.299940741 64.4108593,0.895577778 L63.656763,3.35452593 C62.5956519,2.77728148 61.3958889,2.48865926 60.0532296,2.48865926 C58.9921185,2.48865926 58.163037,2.7504 57.5688148,3.27105185 C57.0665556,3.73652593 56.8147185,4.30386667 56.8147185,4.9759037 C56.8147185,5.7200963 57.1019259,6.33554074 57.6791704,6.81940741 C58.1814296,7.26648889 59.0939852,7.75035556 60.4182519,8.27242222 C62.0382148,8.92465185 63.2280741,9.68723704 63.9934889,10.5615926 C64.7560741,11.4331185 65.1366593,12.5239407 65.1366593,13.8255704 L65.1366593,13.8255704 Z"></path>
                            <path d="M75.1096889,7.7928 L71.7848741,7.7928 L71.7848741,14.3844222 C71.7848741,16.0609778 72.3706074,16.8985481 73.5449037,16.8985481 C74.0839481,16.8985481 74.5310296,16.8518593 74.8847333,16.7584815 L74.9682074,19.0490667 C74.3739852,19.2711926 73.5915926,19.382963 72.6224444,19.382963 C71.4311704,19.382963 70.5002222,19.0193556 69.8281852,18.2935556 C69.1589778,17.5663407 68.8222519,16.3467704 68.8222519,14.6334296 L68.8222519,7.78997037 L66.8415111,7.78997037 L66.8415111,5.52626667 L68.8222519,5.52626667 L68.8222519,3.04043704 L71.7848741,2.14627407 L71.7848741,5.52626667 L75.1096889,5.52626667 L75.1096889,7.7928 L75.1096889,7.7928 Z"></path>
                            <path d="M90.1109704,12.2056074 C90.1109704,14.2924593 89.5139185,16.0058 88.3226444,17.3456296 C87.073363,18.7250741 85.4152,19.4126741 83.3481556,19.4126741 C81.3560963,19.4126741 79.7700889,18.7519556 78.5873037,17.4305185 C77.4045185,16.1090815 76.8131259,14.4410148 76.8131259,12.430563 C76.8131259,10.3267333 77.4214963,8.60348889 78.6424815,7.26365926 C79.860637,5.92241481 81.5046519,5.25179259 83.5716963,5.25179259 C85.5637556,5.25179259 87.1667407,5.91251111 88.3764074,7.23536296 C89.5337259,8.5186 90.1109704,10.1753481 90.1109704,12.2056074 L90.1109704,12.2056074 Z M86.9814,12.3032296 C86.9814,11.0511185 86.714,9.97727407 86.1721259,9.0816963 C85.5397037,7.99794815 84.635637,7.45748889 83.4641704,7.45748889 C82.2516741,7.45748889 81.3306296,7.99936296 80.6982074,9.0816963 C80.1563333,9.97868889 79.8889333,11.0695111 79.8889333,12.3598222 C79.8889333,13.6119333 80.1563333,14.6857778 80.6982074,15.5799407 C81.350437,16.6636889 82.2615778,17.2041481 83.4372889,17.2041481 C84.5889481,17.2041481 85.4930148,16.6523704 86.1452444,15.5516444 C86.7012667,14.6390889 86.9814,13.5539259 86.9814,12.3032296 L86.9814,12.3032296 Z"></path>
                            <path d="M99.915637,8.18187407 C99.6171111,8.1266963 99.2987778,8.0984 98.9648815,8.0984 C97.9037704,8.0984 97.0831778,8.49879259 96.5059333,9.30099259 C96.0036741,10.0084 95.751837,10.902563 95.751837,11.9820667 L95.751837,19.1056593 L92.7368667,19.1056593 L92.765163,9.80466667 C92.765163,8.23988148 92.726963,6.81516296 92.6519778,5.53051111 L95.2792889,5.53051111 L95.3896444,8.12811111 L95.4731185,8.12811111 C95.7914519,7.23536296 96.2937111,6.51663704 96.9813111,5.97759259 C97.6533481,5.49231111 98.3791481,5.25037778 99.1615407,5.25037778 C99.4402593,5.25037778 99.6920963,5.27018519 99.915637,5.30555556 L99.915637,8.18187407 L99.915637,8.18187407 Z"></path>
                            <path d="M113.405896,11.6750519 C113.405896,12.2155111 113.370526,12.6710815 113.295541,13.0431778 L104.246385,13.0431778 C104.281756,14.3844222 104.718933,15.410163 105.559333,16.1175704 C106.321919,16.7499926 107.308044,17.0669111 108.519126,17.0669111 C109.858956,17.0669111 111.081356,16.8532741 112.180667,16.4245852 L112.653215,18.5185111 C111.368563,19.0787778 109.851881,19.3574963 108.101756,19.3574963 C105.996511,19.3574963 104.344007,18.7378074 103.141415,17.4998444 C101.941652,16.2618815 101.340356,14.5994741 101.340356,12.514037 C101.340356,10.4668 101.899207,8.76194815 103.018326,7.40231111 C104.189793,5.95071111 105.77297,5.22491111 107.76503,5.22491111 C109.721719,5.22491111 111.20303,5.95071111 112.208963,7.40231111 C113.005504,8.55538519 113.405896,9.98151852 113.405896,11.6750519 L113.405896,11.6750519 Z M110.529578,10.8926593 C110.549385,9.9984963 110.352726,9.22600741 109.943844,8.57377778 C109.421778,7.73479259 108.619578,7.31600741 107.540074,7.31600741 C106.553948,7.31600741 105.751748,7.72488889 105.139133,8.54548148 C104.636874,9.19771111 104.338348,9.9801037 104.246385,10.8912444 L110.529578,10.8912444 L110.529578,10.8926593 Z"></path>
                        </g>
                        <g transform="translate(60.837037, 8.488889)" id="Shape" fill="#FFFFFF">
                            <path d="M8.55962963,5.67199259 C8.55962963,7.33722963 8.0602,8.59075556 7.06275556,9.43257037 C6.13888148,10.2093037 4.82593333,10.5983778 3.12532593,10.5983778 C2.2820963,10.5983778 1.56054074,10.5615926 0.956414815,10.4880222 L0.956414815,1.38934815 C1.74446667,1.26201481 2.59335556,1.19693333 3.51015556,1.19693333 C5.13011852,1.19693333 6.3511037,1.54922222 7.17452593,2.2538 C8.09698519,3.05034074 8.55962963,4.18926667 8.55962963,5.67199259 L8.55962963,5.67199259 Z M6.99625926,5.71302222 C6.99625926,4.63351852 6.71046667,3.80585185 6.13888148,3.22860741 C5.5672963,2.65277778 4.73255556,2.36415556 3.63324444,2.36415556 C3.16635556,2.36415556 2.76879259,2.39528148 2.43914074,2.46036296 L2.43914074,9.37739259 C2.62165185,9.40568889 2.95554815,9.41842222 3.44082963,9.41842222 C4.57551111,9.41842222 5.45128148,9.10291852 6.06814074,8.47191111 C6.685,7.8409037 6.99625926,6.92127407 6.99625926,5.71302222 L6.99625926,5.71302222 Z"></path>
                            <path d="M16.8490296,7.12642222 C16.8490296,8.15216296 16.556163,8.99256296 15.9704296,9.65186667 C15.3564,10.329563 14.5428815,10.6677037 13.5270444,10.6677037 C12.5479926,10.6677037 11.7684296,10.3437111 11.1869407,9.6928963 C10.6068667,9.0434963 10.3168296,8.22431852 10.3168296,7.23677778 C10.3168296,6.20396296 10.6153556,5.35648889 11.215237,4.6986 C11.8151185,4.04071111 12.621563,3.71105926 13.6374,3.71105926 C14.6164519,3.71105926 15.4030889,4.03505185 15.9987259,4.68445185 C16.5646519,5.31545926 16.8490296,6.13039259 16.8490296,7.12642222 L16.8490296,7.12642222 Z M15.3111259,7.17452593 C15.3111259,6.55908148 15.1781333,6.03135556 14.913563,5.59134815 C14.6023037,5.05937778 14.1594667,4.79339259 13.583637,4.79339259 C12.988,4.79339259 12.5352593,5.05937778 12.224,5.59134815 C11.9580148,6.03135556 11.826437,6.56757037 11.826437,7.20140741 C11.826437,7.81685185 11.9594296,8.34457778 12.224,8.78458519 C12.545163,9.31655556 12.9922444,9.58254074 13.5694889,9.58254074 C14.1354148,9.58254074 14.5796667,9.31231111 14.8994148,8.77043704 C15.1738889,8.32194074 15.3111259,7.78997037 15.3111259,7.17452593 L15.3111259,7.17452593 Z"></path>
                            <path d="M27.9638148,3.84688148 L25.876963,10.5163185 L24.5187407,10.5163185 L23.6542889,7.62019259 C23.4349926,6.89722222 23.2567259,6.1784963 23.1180741,5.46542963 L23.0911926,5.46542963 C22.9624444,6.1983037 22.7841778,6.91561481 22.5549778,7.62019259 L21.636763,10.5163185 L20.2629778,10.5163185 L18.3006296,3.84688148 L19.8243852,3.84688148 L20.5784815,7.01748148 C20.7609926,7.76733333 20.910963,8.48181481 21.0312222,9.1580963 L21.0581037,9.1580963 C21.1684593,8.60065926 21.3509704,7.89042222 21.6084667,7.03162963 L22.5549778,3.8482963 L23.7632296,3.8482963 L24.6701259,6.96371852 C24.8894222,7.72347407 25.0676889,8.45493333 25.2049259,9.15951111 L25.2459556,9.15951111 C25.3464074,8.47332593 25.4977926,7.74186667 25.6986963,6.96371852 L26.5079704,3.8482963 L27.9638148,3.8482963 L27.9638148,3.84688148 Z"></path>
                            <path d="M35.6505037,10.5163185 L34.1677778,10.5163185 L34.1677778,6.69631852 C34.1677778,5.51919259 33.7206963,4.93062963 32.8237037,4.93062963 C32.3836963,4.93062963 32.0285778,5.09191852 31.7526889,5.41591111 C31.4796296,5.7399037 31.3409778,6.1219037 31.3409778,6.55908148 L31.3409778,10.5149037 L29.8582519,10.5149037 L29.8582519,5.75263704 C29.8582519,5.1669037 29.8398593,4.53165185 29.8044889,3.84405185 L31.1075333,3.84405185 L31.1768593,4.88677037 L31.2178889,4.88677037 C31.3904963,4.56277778 31.6479926,4.29537778 31.9861333,4.08174074 C32.3879407,3.83273333 32.8378519,3.70681481 33.3302074,3.70681481 C33.9527259,3.70681481 34.4705481,3.90771852 34.8822593,4.31094074 C35.3944222,4.80471111 35.6505037,5.54182963 35.6505037,6.52088148 L35.6505037,10.5163185 L35.6505037,10.5163185 Z"></path>
                            <path d="M39.7393185,10.5163185 L38.2580074,10.5163185 L38.2580074,0.786637037 L39.7393185,0.786637037 L39.7393185,10.5163185 L39.7393185,10.5163185 Z"></path>
                            <path d="M48.4687259,7.12642222 C48.4687259,8.15216296 48.1758593,8.99256296 47.5901259,9.65186667 C46.9760963,10.329563 46.161163,10.6677037 45.1467407,10.6677037 C44.1662741,10.6677037 43.3867111,10.3437111 42.806637,9.6928963 C42.226563,9.0434963 41.9365259,8.22431852 41.9365259,7.23677778 C41.9365259,6.20396296 42.2350519,5.35648889 42.8349333,4.6986 C43.4348148,4.04071111 44.2412593,3.71105926 45.2556815,3.71105926 C46.2361481,3.71105926 47.0213704,4.03505185 47.6184222,4.68445185 C48.1843481,5.31545926 48.4687259,6.13039259 48.4687259,7.12642222 L48.4687259,7.12642222 Z M46.9294074,7.17452593 C46.9294074,6.55908148 46.7964148,6.03135556 46.5318444,5.59134815 C46.222,5.05937778 45.7777481,4.79339259 45.2033333,4.79339259 C44.6062815,4.79339259 44.1535407,5.05937778 43.8436963,5.59134815 C43.5777111,6.03135556 43.4461333,6.56757037 43.4461333,7.20140741 C43.4461333,7.81685185 43.5791259,8.34457778 43.8436963,8.78458519 C44.1648593,9.31655556 44.6119407,9.58254074 45.1891852,9.58254074 C45.7551111,9.58254074 46.1979481,9.31231111 46.5176963,8.77043704 C46.7935852,8.32194074 46.9294074,7.78997037 46.9294074,7.17452593 L46.9294074,7.17452593 Z"></path>
                            <path d="M55.6446667,10.5163185 L54.3133259,10.5163185 L54.2029704,9.74807407 L54.1619407,9.74807407 C53.7063704,10.3606889 53.0569704,10.6677037 52.2137407,10.6677037 C51.5841481,10.6677037 51.0748148,10.4653852 50.6914,10.0635778 C50.3433556,9.69855556 50.1693333,9.2444 50.1693333,8.70535556 C50.1693333,7.89042222 50.5088889,7.26931852 51.1922444,6.83921481 C51.8741852,6.40911111 52.8334296,6.1983037 54.068563,6.20820741 L54.068563,6.0837037 C54.068563,5.2051037 53.6073333,4.76651111 52.6834593,4.76651111 C52.0255704,4.76651111 51.4454963,4.93204444 50.9446519,5.26028148 L50.6432963,4.28688889 C51.2629852,3.90347407 52.0284,3.71105926 52.9310519,3.71105926 C54.6741037,3.71105926 55.5484593,4.63068889 55.5484593,6.46994815 L55.5484593,8.92606667 C55.5484593,9.59244444 55.581,10.123 55.6446667,10.5163185 L55.6446667,10.5163185 Z M54.1053481,8.22431852 L54.1053481,7.19574815 C52.4698222,7.16745185 51.6520593,7.61594815 51.6520593,8.53982222 C51.6520593,8.88786667 51.745437,9.14819259 51.936437,9.32221481 C52.127437,9.49623704 52.3707852,9.58254074 52.6608222,9.58254074 C52.9862296,9.58254074 53.2904148,9.47925926 53.5677185,9.27411111 C53.846437,9.06754815 54.0176296,8.80580741 54.0812963,8.48464444 C54.0968593,8.41248889 54.1053481,8.32477037 54.1053481,8.22431852 L54.1053481,8.22431852 Z"></path>
                            <path d="M64.0698889,10.5163185 L62.7541111,10.5163185 L62.6847852,9.4453037 L62.6437556,9.4453037 C62.2235556,10.260237 61.5076593,10.6677037 60.5017259,10.6677037 C59.6981111,10.6677037 59.0289037,10.3522 58.4983481,9.72119259 C57.9677926,9.09018519 57.7032222,8.27100741 57.7032222,7.26507407 C57.7032222,6.18557037 57.9904296,5.31121481 58.5676741,4.64342222 C59.1265259,4.0209037 59.8112963,3.70964444 60.6262296,3.70964444 C61.5218074,3.70964444 62.1485704,4.011 62.5051037,4.61512593 L62.5334,4.61512593 L62.5334,0.786637037 L64.0175407,0.786637037 L64.0175407,8.7195037 C64.0175407,9.3689037 64.0345185,9.96737037 64.0698889,10.5163185 L64.0698889,10.5163185 Z M62.5334,7.70366667 L62.5334,6.59162222 C62.5334,6.39920741 62.5192519,6.24357778 62.4923704,6.12473333 C62.4088963,5.7682 62.2292148,5.46825926 61.9561556,5.22632593 C61.6802667,4.98439259 61.3477852,4.86271852 60.9643704,4.86271852 C60.4111778,4.86271852 59.9782444,5.08201481 59.6599111,5.52202222 C59.3444074,5.96202963 59.1845333,6.52371111 59.1845333,7.2098963 C59.1845333,7.8692 59.3359185,8.404 59.6401037,8.81571111 C59.9612667,9.2543037 60.3942,9.4736 60.9360741,9.4736 C61.4227704,9.4736 61.8118444,9.29108889 62.1075407,8.92465185 C62.3933333,8.58651111 62.5334,8.17904444 62.5334,7.70366667 L62.5334,7.70366667 Z"></path>
                            <path d="M76.7508741,7.12642222 C76.7508741,8.15216296 76.4580074,8.99256296 75.8722741,9.65186667 C75.2582444,10.329563 74.4461407,10.6677037 73.4288889,10.6677037 C72.4512519,10.6677037 71.6716889,10.3437111 71.0887852,9.6928963 C70.5087111,9.0434963 70.2186741,8.22431852 70.2186741,7.23677778 C70.2186741,6.20396296 70.5172,5.35648889 71.1170815,4.6986 C71.716963,4.04071111 72.5234074,3.71105926 73.5406593,3.71105926 C74.5182963,3.71105926 75.3063481,4.03505185 75.9005704,4.68445185 C76.4664963,5.31545926 76.7508741,6.13039259 76.7508741,7.12642222 L76.7508741,7.12642222 Z M75.2143852,7.17452593 C75.2143852,6.55908148 75.0813926,6.03135556 74.8168222,5.59134815 C74.5041481,5.05937778 74.0627259,4.79339259 73.4854815,4.79339259 C72.8912593,4.79339259 72.4385185,5.05937778 72.1258444,5.59134815 C71.8598593,6.03135556 71.7282815,6.56757037 71.7282815,7.20140741 C71.7282815,7.81685185 71.8612741,8.34457778 72.1258444,8.78458519 C72.4470074,9.31655556 72.8940889,9.58254074 73.4713333,9.58254074 C74.0372593,9.58254074 74.4829259,9.31231111 74.8026741,8.77043704 C75.0757333,8.32194074 75.2143852,7.78997037 75.2143852,7.17452593 L75.2143852,7.17452593 Z"></path>
                            <path d="M84.7233556,10.5163185 L83.2420444,10.5163185 L83.2420444,6.69631852 C83.2420444,5.51919259 82.794963,4.93062963 81.8965556,4.93062963 C81.4565481,4.93062963 81.1014296,5.09191852 80.8269556,5.41591111 C80.5524815,5.7399037 80.4152444,6.1219037 80.4152444,6.55908148 L80.4152444,10.5149037 L78.9311037,10.5149037 L78.9311037,5.75263704 C78.9311037,5.1669037 78.9141259,4.53165185 78.8787556,3.84405185 L80.1803852,3.84405185 L80.2497111,4.88677037 L80.2907407,4.88677037 C80.464763,4.56277778 80.7222593,4.29537778 81.0589852,4.08174074 C81.4622074,3.83273333 81.9107037,3.70681481 82.4044741,3.70681481 C83.0255778,3.70681481 83.5434,3.90771852 83.9551111,4.31094074 C84.4686889,4.80471111 84.7233556,5.54182963 84.7233556,6.52088148 L84.7233556,10.5163185 L84.7233556,10.5163185 Z"></path>
                            <path d="M94.7020444,4.95751111 L93.0693481,4.95751111 L93.0693481,8.19743704 C93.0693481,9.02085926 93.3593852,9.43257037 93.9338,9.43257037 C94.1997852,9.43257037 94.4204963,9.40993333 94.5945185,9.36324444 L94.6327185,10.4880222 C94.3398519,10.5983778 93.9550222,10.6535556 93.4810593,10.6535556 C92.8953259,10.6535556 92.4397556,10.4752889 92.1101037,10.1187556 C91.779037,9.76222222 91.6149185,9.16234074 91.6149185,8.32052593 L91.6149185,4.95751111 L90.6401111,4.95751111 L90.6401111,3.84688148 L91.6149185,3.84688148 L91.6149185,2.62448148 L93.0679333,2.18588889 L93.0679333,3.84546667 L94.7006296,3.84546667 L94.7006296,4.95751111 L94.7020444,4.95751111 Z"></path>
                            <path d="M102.551437,10.5163185 L101.067296,10.5163185 L101.067296,6.72461481 C101.067296,5.5290963 100.620215,4.93062963 99.724637,4.93062963 C99.037037,4.93062963 98.5673185,5.27725926 98.3098222,5.97051852 C98.265963,6.11624444 98.2404963,6.29451111 98.2404963,6.5039037 L98.2404963,10.5149037 L96.7591852,10.5149037 L96.7591852,0.786637037 L98.2404963,0.786637037 L98.2404963,4.80612593 L98.2687926,4.80612593 C98.7356815,4.07466667 99.4048889,3.70964444 100.27217,3.70964444 C100.8862,3.70964444 101.394119,3.91054815 101.797341,4.31377037 C102.2996,4.81602963 102.551437,5.56305185 102.551437,6.55059259 L102.551437,10.5163185 L102.551437,10.5163185 Z"></path>
                            <path d="M110.648422,6.8660963 C110.648422,7.13208148 110.628615,7.35562222 110.593244,7.53813333 L106.146481,7.53813333 C106.166289,8.19743704 106.378511,8.6996963 106.790222,9.04774074 C107.166563,9.359 107.651844,9.51462963 108.246067,9.51462963 C108.903956,9.51462963 109.503837,9.40993333 110.044296,9.19912593 L110.276326,10.2291111 C109.643904,10.5035852 108.899711,10.6408222 108.038089,10.6408222 C107.005274,10.6408222 106.191756,10.336637 105.603193,9.72826667 C105.0118,9.1198963 104.718933,8.30354815 104.718933,7.27922222 C104.718933,6.27328889 104.991993,5.43571852 105.542356,4.76792593 C106.11677,4.05485926 106.893504,3.69832593 107.87397,3.69832593 C108.833215,3.69832593 109.561844,4.05485926 110.0542,4.76792593 C110.451763,5.33385185 110.648422,6.03418519 110.648422,6.8660963 L110.648422,6.8660963 Z M109.233607,6.48268148 C109.244926,6.04267407 109.147304,5.6635037 108.9464,5.34375556 C108.688904,4.93204444 108.297,4.72548148 107.766444,4.72548148 C107.282578,4.72548148 106.887844,4.92638519 106.586489,5.32960741 C106.340311,5.65077037 106.194585,6.03418519 106.146481,6.48268148 L109.233607,6.48268148 L109.233607,6.48268148 Z"></path>
                        </g>
                    </g>
                </g>
            </g>
        </g>
    </g>
</svg>