<?xml version="1.0" encoding="UTF-8" standalone="no"?>
<svg width="180px" height="95px" viewBox="0 0 180 95" version="1.1" xmlns="http://www.w3.org/2000/svg" xmlns:xlink="http://www.w3.org/1999/xlink" xmlns:sketch="http://www.bohemiancoding.com/sketch/ns">
    <!-- Generator: Sketch 3.3.2 (12043) - http://www.bohemiancoding.com/sketch -->
    <title>Artboard 1</title>
    <desc>Created with Sketch.</desc>
    <defs></defs>
    <g id="Page-1" stroke="none" stroke-width="1" fill="none" fill-rule="evenodd" sketch:type="MSPage">
        <g id="Artboard-1" sketch:type="MSArtboardGroup" fill="#000000">
            <g id="Group" sketch:type="MSLayerGroup" transform="translate(1.000000, 0.880952)">
                <path d="M5.32150649,0.0994025974 C5.07954978,0.0994025974 4.93776623,0.113272727 4.93776623,0.113272727 L0.970138528,0.302831169 C-0.036987013,0.365246753 0.151800866,1.62434632 0.151800866,1.62434632 C0.151800866,1.62434632 0.843766234,25.3646147 0.843766234,27.694026 C0.843766234,30.0242078 1.97803463,31.7872554 1.97803463,31.7872554 C2.77325541,33.2266667 4.73202597,33.7545022 6.57829437,33.7545022 C7.7988658,33.7545022 8.97089177,33.5233333 9.7237316,33.1727273 C11.6116104,32.2904329 11.2972208,30.6537576 11.2972208,30.6537576 L11.2972208,23.7271688 C11.2972208,23.0182511 11.9113593,22.9704762 12.0762597,22.9704762 C12.1016883,22.9704762 12.116329,22.9720173 12.116329,22.9720173 L15.7048398,22.845645 C16.5231775,22.845645 16.3343896,23.9159567 16.3343896,23.9159567 L16.3343896,28.0723723 C16.3983463,31.5984675 18.8541299,33.046355 18.8541299,33.046355 C19.5391602,33.6435411 20.5177749,33.8600693 21.5418528,33.8600693 C23.4358961,33.8600693 25.4817403,33.1180173 26.0951082,32.6687792 C27.0398182,31.9768139 27.0398182,30.9689177 27.0398182,30.9689177 C26.724658,27.946 26.724658,13.8408485 27.0398182,7.03986147 C27.3318615,0.708917749 22.3324502,0.490848485 21.6404848,0.490848485 C21.5896277,0.490848485 21.5618874,0.491619048 21.5618874,0.491619048 C21.5618874,0.491619048 16.6495498,0.554034632 16.02,0.617220779 C15.3904502,0.679636364 15.7048398,1.93950649 15.7048398,1.93950649 L15.9568139,16.296632 C15.9059567,17.1627446 15.154658,17.2451948 14.8695498,17.2451948 C14.8025108,17.2451948 14.7609004,17.241342 14.7609004,17.241342 L11.9899567,17.241342 C11.171619,17.241342 11.3604069,16.296632 11.3604069,16.296632 L11.4235931,6.66228571 C11.3164848,0.555575758 6.6977316,0.0994025974 5.32150649,0.0994025974" id="Fill-1" sketch:type="MSShapeGroup"></path>
                <path d="M39.5499048,29.6797662 C37.2590216,29.6797662 36.8729697,26.1128312 37.0517403,25.9933939 C37.0517403,25.9933939 37.0517403,24.3559481 38.8155584,23.5376104 C39.1823463,23.367316 39.5352641,23.2925714 39.8673766,23.2925714 C41.1326407,23.2918009 42.0919913,24.3790649 42.3416537,25.4270303 C42.6568139,26.7485455 42.5936277,29.2050996 39.9490563,29.6458615 C39.810355,29.6689784 39.6770476,29.6797662 39.5499048,29.6797662 M39.4381732,9.86628571 C39.2732727,9.86628571 39.1076017,9.8685974 38.9403896,9.87399134 C32.3297316,10.0627792 30.1259221,16.044658 29.6843896,17.1149697 C29.327619,17.9818528 29.8785714,18.064303 30.1020346,18.064303 C30.1544329,18.064303 30.1891082,18.0596797 30.1891082,18.0596797 L30.5027273,18.1228658 C30.5027273,18.1228658 32.7073074,16.1702597 37.3669004,16.044658 C37.4262338,16.0431169 37.4855671,16.0423463 37.5441299,16.0423463 C42.0480693,16.0423463 42.8448312,20.7743723 42.8448312,21.2706147 C42.8448312,21.4262684 42.7793333,21.4802078 42.6884069,21.4802078 C42.4842078,21.4802078 42.1528658,21.2089697 42.1528658,21.2089697 C40.0461472,19.8365974 37.3299134,19.684026 36.2280087,19.684026 C35.913619,19.684026 35.7302251,19.6971255 35.7302251,19.6971255 C28.7404502,19.8859134 28.5516623,26.1197662 28.5516623,26.1197662 C28.6140779,33.550303 34.974303,33.9910649 34.974303,33.9910649 C35.3102684,34.0218874 35.636987,34.0365281 35.9529177,34.0365281 C41.5063636,34.0365281 44.0422857,29.5834459 44.0422857,29.5834459 L44.1678874,31.2833074 C44.6687532,33.2883117 46.2692121,33.8685455 47.7301991,33.8685455 C48.839039,33.8685455 49.8685108,33.5341212 50.2761385,33.2351429 C51.2208485,32.5431775 51.0944762,31.4096797 51.0944762,31.4096797 C50.779316,29.7722338 51.0320606,23.790355 51.0320606,23.790355 C51.2162251,13.4779134 45.8346147,9.86628571 39.4381732,9.86628571" id="Fill-2" sketch:type="MSShapeGroup"></path>
                <path d="M82.2845455,10.3756277 C76.147013,10.3756277 72.1262165,17.1149697 72.1262165,17.1149697 L71.8118268,16.4222338 L73.1348831,14.596 C73.3860866,13.7776623 73.2604848,13.4625022 73.2604848,13.4625022 C71.6862251,10.944303 68.4745195,10.7555152 68.4745195,10.7555152 C67.8703983,10.6576537 67.2886234,10.612961 66.7284242,10.612961 C61.857697,10.612961 58.6798961,13.9772381 57.8330476,15.1631342 C57.3491342,15.8404589 56.9808052,16.0061299 56.7365368,16.0061299 C56.5045974,16.0061299 56.3843896,15.8558701 56.3843896,15.8558701 L56.4475758,14.7855584 C56.6363636,12.5177922 57.3290996,10.692329 57.3290996,10.692329 C57.2828658,10.5297403 57.0825195,10.4788831 56.8474978,10.4788831 C56.4452641,10.4788831 55.9436277,10.6291429 55.9436277,10.6291429 C52.4799481,11.1323203 52.1655584,15.4151082 52.1655584,15.4151082 L52.1023723,28.7651082 C52.0045108,29.4432035 51.7533074,33.7753074 56.3050216,33.856987 C56.3612727,33.8577576 56.4159827,33.8585281 56.4706926,33.8585281 C60.8482597,33.8585281 60.4914892,30.6460519 60.4914892,30.6460519 L60.4506494,24.428381 C60.7057056,19.3218615 63.3510476,19.0598701 63.8904416,19.0598701 C63.9520866,19.0598701 63.9859913,19.0637229 63.9859913,19.0637229 C66.7099307,19.0637229 66.5465714,22.1112987 66.5874113,26.9881905 C66.6282511,31.8650823 68.5785455,33.8970563 72.1955671,34.1004848 C72.32271,34.1074199 72.4436883,34.1112727 72.5615844,34.1112727 C75.8041126,34.1112727 75.6916104,31.4990649 75.6916104,31.4990649 C75.6916104,31.4990649 75.9751775,26.9881905 75.9751775,24.5901991 C75.9751775,22.1929784 76.7072121,19.6323983 79.2269524,19.1454026 C79.4604329,19.0999394 79.6746494,19.0799048 79.872684,19.0799048 C81.8175844,19.0799048 82.1527792,21.0548571 82.1527792,21.0548571 C82.1527792,21.0548571 82.4371169,24.428381 82.4371169,26.2160866 C82.4371169,28.0037922 82.7052727,29.7722338 82.7052727,29.7722338 C83.346381,33.2482424 86.9757316,33.9009091 89.3251775,33.9009091 C90.2105541,33.9009091 90.9140779,33.807671 91.2068918,33.7390909 C92.2772035,33.4863463 92.1516017,32.2904329 92.1516017,32.2904329 L91.8996277,21.145013 C91.7747965,15.4775238 88.6871515,10.5027706 82.4540693,10.3771688 C82.3970476,10.3763983 82.3407965,10.3756277 82.2845455,10.3756277" id="Fill-3" sketch:type="MSShapeGroup"></path>
                <path d="M101.244242,10.4326494 C92.1361905,10.4334199 92.9368052,17.8577922 92.9368052,17.8577922 C92.9098355,18.5220173 93.044684,19.0637229 93.044684,19.0637229 C93.492381,23.6963463 100.197048,24.956987 101.944684,25.2813939 C103.69232,25.6065714 103.448823,26.7855325 103.448823,26.7855325 C103.257723,27.6701385 102.084926,27.9406061 100.521455,27.9406061 C100.075299,27.9406061 99.5967792,27.9182597 99.1005368,27.8828139 C96.9514372,27.7263896 94.4663723,26.331671 93.8784329,26.331671 C93.8545455,26.331671 93.8337403,26.3332121 93.8160173,26.3386061 C93.3698615,26.460355 93.5316797,26.8525714 93.5316797,26.8525714 C93.9107965,33.6265887 100.685584,34.059645 103.122104,34.059645 C105.561706,34.059645 112.497541,33.1388225 112.822719,27.448987 C113.147896,21.7591515 107.132883,20.6210303 107.132883,20.6210303 C107.132883,20.6210303 105.561706,20.2966234 102.852407,19.6462684 C100.143108,18.9959134 101.715056,17.0987879 101.715056,17.0987879 C102.111896,16.7019481 102.689818,16.5432121 103.360208,16.5432121 C105.712736,16.5432121 109.204156,18.5019827 110.005541,19.0498528 C110.290649,19.2448052 110.500242,19.3149264 110.655896,19.3149264 C111.061212,19.3149264 111.088952,18.8333247 111.088952,18.8333247 C111.088952,18.8333247 111.360961,16.8283203 111.522779,15.7449091 C111.685368,14.6607273 111.522779,14.6067879 111.522779,14.6067879 C111.522779,14.6067879 110.763775,10.5428398 101.443048,10.4341905 C101.376009,10.4334199 101.310511,10.4326494 101.244242,10.4326494" id="Fill-4" sketch:type="MSShapeGroup"></path>
                <path d="M124.261723,0.0254285714 L119.552043,0.366787879 C119.552043,0.366787879 119.291593,0.307454545 118.992615,0.307454545 C118.574199,0.307454545 118.080268,0.423038961 118.120338,0.980926407 L118.200476,7.60314286 C118.200476,7.60314286 118.475567,8.66035498 117.485394,8.66035498 C117.4669,8.66035498 117.447636,8.66035498 117.429143,8.65958442 C117.429143,8.65958442 115.997437,8.60872727 114.6451,8.60872727 C113.558606,8.60872727 112.52297,8.64109091 112.319541,8.75975758 C112.319541,8.75975758 111.363273,8.75975758 112.046762,10.3972035 C112.72871,12.0354199 113.412199,14.1506147 113.412199,14.1506147 C113.412199,14.1506147 113.615628,15.0375325 114.639706,15.0375325 C115.663784,15.0375325 117.02845,15.105342 117.02845,15.105342 C117.02845,15.105342 117.077766,15.0198095 117.154823,15.0198095 C117.259619,15.0198095 117.416814,15.1785455 117.574009,15.9252208 C117.848329,17.2220779 117.983948,26.0927965 117.983948,26.0927965 C117.983948,26.0927965 117.375974,33.8723983 125.317394,33.8723983 C125.352069,33.8723983 125.385974,33.8716277 125.42142,33.8716277 C133.473801,33.8038182 132.314874,28.8221299 132.381913,28.4815411 C132.381913,28.4815411 132.450494,27.1839134 131.562805,27.1161039 C130.675887,27.0482944 129.174831,26.9111342 129.174831,26.9111342 C129.174831,26.9111342 129.164814,26.9119048 129.147091,26.9119048 C128.938268,26.9119048 127.610589,26.7963203 127.674545,23.8404416 L127.674545,15.7880606 C127.674545,15.7880606 127.355532,14.89729 128.868918,14.89729 C128.923628,14.89729 128.979879,14.8988312 129.039212,14.9011429 L131.290797,14.5605541 C131.290797,14.5605541 133.678,13.8778355 133.473801,11.4212814 L133.542381,9.51028571 C133.542381,9.51028571 133.61019,8.62336797 132.314874,8.62336797 C131.018017,8.62336797 129.37903,8.55555844 129.37903,8.55555844 C129.37903,8.55555844 129.24187,8.59562771 129.058476,8.59562771 C128.709411,8.59562771 128.195446,8.44922078 128.149983,7.59929004 L128.014364,3.30032035 C128.014364,3.30032035 127.741584,0.161818182 124.261723,0.0254285714" id="Fill-5" sketch:type="MSShapeGroup"></path>
                <path d="M145.075394,21.2220693 C145.016061,21.2220693 144.982156,21.2174459 144.982156,21.2174459 C141.488424,21.0548571 142.178848,17.6004242 142.178848,17.6004242 C142.289039,15.0467792 144.165359,14.9165541 144.5491,14.9165541 C144.592251,14.9165541 144.616909,14.9180952 144.616909,14.9180952 L144.620762,14.9180952 C144.734805,14.9180952 147.095039,14.9566234 147.056511,18.1698701 C147.021065,21.0363636 145.473775,21.2220693 145.075394,21.2220693 M145.728831,10.5050823 C145.286528,10.5050823 145.023766,10.5289697 145.023766,10.5289697 C134.213541,10.9758961 134.619628,23.0459913 134.619628,23.0459913 C135.161333,33.8431169 144.436597,34.1012554 145.321974,34.1012554 C145.366667,34.1012554 145.389784,34.1004848 145.389784,34.1004848 C145.554684,34.1058788 145.718043,34.108961 145.876779,34.108961 C154.812996,34.108961 154.65503,25.3214632 154.65503,25.3214632 C154.598779,25.2374719 154.536364,25.2051082 154.473177,25.2051082 C154.262814,25.2051082 154.045515,25.5657316 154.045515,25.5657316 C152.345654,27.958329 149.642519,28.3066234 148.215437,28.3066234 C147.62981,28.3066234 147.259169,28.2480606 147.259169,28.2480606 C140.71555,27.841974 140.797229,22.5589957 140.797229,22.5589957 C140.831134,22.3994892 140.906649,22.341697 140.997576,22.341697 C141.231827,22.341697 141.568563,22.7208139 141.568563,22.7208139 C143.07039,24.7635758 145.725749,25.0301905 147.010277,25.0301905 C147.464139,25.0301905 147.746165,24.9970563 147.746165,24.9970563 L147.817827,24.9970563 C155.710701,24.9970563 155.223706,18.2507792 155.223706,18.2507792 C154.682,11.0991861 147.949593,10.5050823 145.728831,10.5050823" id="Fill-6" sketch:type="MSShapeGroup"></path>
                <path d="M161.976918,10.5682684 C161.949177,10.5682684 161.919896,10.5682684 161.889844,10.5698095 C160.832632,10.6106494 157.176312,11.4235931 157.33813,14.7955758 L157.135472,29.9140173 C157.135472,29.9140173 157.460649,33.6119481 160.954381,33.7352381 C160.954381,33.7352381 161.047619,33.7383203 161.208667,33.7383203 C162.290537,33.7383203 166.434623,33.5849784 166.116381,31.2147273 C166.116381,31.2147273 165.263368,22.2330476 166.075541,20.7705195 C166.075541,20.7705195 166.598753,19.0537056 168.394165,19.0537056 C168.472762,19.0537056 168.5529,19.0567879 168.636121,19.0637229 L168.639974,19.0637229 C168.7309,19.0637229 170.390693,19.1022511 170.668095,21.9078701 C170.668095,21.9078701 170.631108,23.4636364 171.758442,23.4636364 C171.812381,23.4636364 171.867861,23.4605541 171.927195,23.4528485 C173.228675,23.2902597 178.105567,22.5589957 177.57619,17.0317489 C177.110771,12.1563983 173.103074,10.5698095 170.100961,10.569039 C169.699498,10.569039 169.315758,10.5975498 168.960528,10.6507186 C168.960528,10.6507186 164.368745,11.3419134 162.458519,15.8119481 C162.458519,15.8119481 162.252779,15.9606667 162.077861,15.9606667 C161.922978,15.9606667 161.792753,15.8443117 161.849775,15.4058615 C161.970753,14.4711688 161.889844,12.3166753 162.50013,11.2193939 C162.50013,11.2193939 162.920857,10.5682684 161.976918,10.5682684" id="Fill-7" sketch:type="MSShapeGroup"></path>
                <path d="M34.5373939,41.2513074 C34.286961,41.2513074 34.1151255,41.2936883 34.1151255,41.2936883 L7.69869264,41.6997749 C-0.429203463,42.1074026 0.140242424,49.1780866 0.140242424,49.1780866 L0.708917749,54.3801558 C0.781350649,56.6910736 2.32864069,56.8197576 2.67308225,56.8197576 C2.71623377,56.8197576 2.74089177,56.8182165 2.74089177,56.8182165 C2.89808658,56.824381 3.06838095,56.8274632 3.24869264,56.8274632 C5.39162771,56.8274632 8.91849351,56.4121299 8.91849351,56.4121299 C10.62529,56.4938095 10.3001126,58.1189264 10.3001126,58.1189264 L10.544381,80.7965887 C10.544381,84.2101818 11.1947359,86.2421558 11.1947359,86.2421558 C12.2781472,91.0026926 16.5593939,92.2101645 20.4091255,92.2101645 C23.1993333,92.2101645 25.7629957,91.5759913 26.7184935,91.1999567 C28.9947359,90.3061039 28.9130563,87.7871342 28.9130563,87.7871342 C28.9130563,87.7871342 27.8566147,59.3379567 27.7757056,58.0372468 C27.6947965,56.7373074 28.8329177,56.6556277 28.8329177,56.6556277 L32.0022424,56.4938095 C39.3171948,56.3304502 38.1798442,50.6406147 38.1798442,50.6406147 C38.1798442,50.6406147 36.7165455,43.2447532 36.0661905,42.1074026 C35.6523983,41.382303 34.9750736,41.2513074 34.5373939,41.2513074" id="Fill-8" sketch:type="MSShapeGroup"></path>
                <path d="M43.7795238,41.3191169 C41.7706667,41.3191169 40.2018009,41.565697 40.2927273,42.3501299 C40.2927273,42.3501299 41.2682597,78.5203463 42.0812035,86.0795671 C42.0812035,86.0795671 42.1621126,88.5183983 44.1131775,89.9000173 C44.1131775,89.9000173 47.0551861,92.283368 50.8540606,92.283368 C51.865039,92.283368 52.9368918,92.1153853 54.0295498,91.6877229 C54.0295498,91.6877229 58.1751775,90.5503723 57.6057316,87.8672727 C57.6057316,87.8672727 56.8744675,79.983645 56.8744675,77.6264935 C56.8744675,77.6264935 56.4676104,76.1631948 57.85,76.1631948 C59.231619,76.1631948 63.1329784,75.1067532 63.1329784,75.1067532 C63.1329784,75.1067532 63.4766494,74.9534113 63.8496017,74.9534113 C64.245671,74.9534113 64.6748745,75.1260173 64.7588658,75.8380173 C64.9214545,77.2196364 65.2458615,84.4544502 65.2458615,84.4544502 C65.2458615,84.4544502 65.2458615,90.0626061 69.3105801,91.2816364 C69.3105801,91.2816364 70.7923723,92.2694978 73.244303,92.2694978 C74.5141905,92.2694978 76.0437576,92.0044242 77.7636537,91.1999567 C77.7636537,91.1999567 81.3398355,89.9809264 81.014658,87.299368 C80.6894805,84.6162684 80.6894805,55.1930996 81.0963377,49.7475325 C81.0963377,49.7475325 81.014658,42.2692208 72.0738182,41.9440433 L66.3839827,41.7814545 L66.3493074,41.7814545 C66.0580346,41.7814545 64.0214372,41.8515758 63.9459221,43.8134286 L64.3527792,65.5155584 C64.3527792,65.5155584 64.6771861,66.4910909 63.2138874,66.8971775 C61.7505887,67.3040346 58.2560866,67.4666234 58.2560866,67.4666234 L58.2406753,67.4666234 C58.1104502,67.4666234 57.199645,67.3972727 57.199645,65.4338788 C57.199645,63.3209957 56.9561472,49.0154978 56.9561472,49.0154978 C56.9561472,49.0154978 56.8744675,42.8378961 51.834987,42.0257229 C51.834987,42.0257229 47.1777056,41.3191169 43.7795238,41.3191169" id="Fill-9" sketch:type="MSShapeGroup"></path>
                <path d="M90.1627792,41.2320433 C85.9601299,41.2320433 83.2847359,42.30929 83.5351688,44.0569264 L84.2656623,84.2918615 C84.2656623,84.2918615 84.4282511,90.3061039 88.8990563,91.6068139 C90.7383896,92.142355 92.523013,92.3334545 94.0710736,92.3334545 C96.285671,92.3334545 98.016355,91.9420087 98.7345195,91.6068139 C98.7345195,91.6068139 101.497758,91.1190476 101.335169,87.5428658 C101.17181,83.966684 101.091671,51.3726494 101.091671,51.3726494 C101.091671,51.3726494 100.847403,42.4318095 94.3453939,41.5371861 C92.8381732,41.3299048 91.430355,41.2320433 90.1627792,41.2320433" id="Fill-10" sketch:type="MSShapeGroup"></path>
                <path d="M135.810147,41.5348745 C135.750814,41.5348745 135.716909,41.5371861 135.716909,41.5371861 L116.291022,42.0257229 C102.716788,42.756987 104.016727,54.787013 104.016727,54.787013 C104.424355,56.8182165 104.016727,74.9441645 104.016727,74.9441645 C103.936589,84.8597662 106.212061,87.3802771 106.212061,87.3802771 C108.407394,92.5815758 115.640667,92.6632554 115.640667,92.6632554 L121.736589,92.5815758 C122.887039,92.6455325 123.950416,92.6748139 124.935965,92.6748139 C136.557593,92.6748139 137.180208,88.5993074 137.180208,88.5993074 C139.131273,84.0475931 137.099299,78.1951688 136.610762,77.4631342 C136.469749,77.2512294 136.28019,77.1757143 136.082926,77.1757143 C135.599013,77.1757143 135.066554,77.6264935 135.066554,77.6264935 C131.981221,79.3479307 126.121091,79.6384329 122.328381,79.6384329 C120.928268,79.6384329 119.809411,79.5991342 119.216848,79.5775584 C117.022286,79.4958788 117.429143,78.4394372 117.429143,78.4394372 L117.429143,74.7823463 C117.429143,73.9694026 119.135939,73.8877229 119.135939,73.8877229 C119.845628,73.9223983 120.583056,73.9378095 121.325879,73.9378095 C125.77819,73.9378095 130.434701,73.3999567 130.434701,73.3999567 C135.716909,71.3679827 133.523117,64.0522597 132.710173,62.8332294 C132.396554,62.3647273 131.999714,62.220632 131.629844,62.220632 C131.038052,62.220632 130.51484,62.5897316 130.51484,62.5897316 C129.295039,62.9965887 126.222805,63.0975325 123.456485,63.0975325 C120.696329,63.0975325 118.241316,62.9965887 118.241316,62.9965887 C116.209342,62.9965887 116.778788,61.9393766 116.778788,61.9393766 L116.696338,58.3624242 C116.641628,57.2065801 117.332052,57.0201039 117.783602,57.0201039 C117.998589,57.0201039 118.159636,57.0624848 118.159636,57.0624848 L131.002606,57.0624848 C138.724416,56.4938095 138.23742,50.1528485 138.23742,50.1528485 C138.23742,50.1528485 138.399238,45.7644935 138.074061,43.5699307 C137.791264,41.6581645 136.212381,41.5348745 135.810147,41.5348745" id="Fill-11" sketch:type="MSShapeGroup"></path>
                <path d="M171.561177,41.2120087 L148.072113,41.4562771 C139.618268,42.0257229 140.431212,54.5427446 140.431212,54.5427446 C141.163247,56.9815758 140.593801,78.9272035 140.593801,78.9272035 C140.593801,82.2591169 141.244156,85.348303 141.244156,85.348303 C142.075593,90.8092814 146.402303,92.1770303 150.091758,92.1770303 C152.168424,92.1770303 154.043974,91.7432035 154.980208,91.3625455 C157.581628,90.3061039 157.257221,88.4367186 157.257221,88.4367186 C156.768684,86.9741905 156.850364,79.5775584 156.850364,79.5775584 C156.850364,78.3007359 157.682571,78.1905455 157.971532,78.1905455 C158.032407,78.1905455 158.069394,78.1951688 158.069394,78.1951688 L165.953022,78.1142597 C175.544216,77.951671 172.374892,67.222355 171.643628,65.4338788 C171.195931,64.3412208 170.292831,64.129316 169.658658,64.129316 C169.255654,64.129316 168.960528,64.2148485 168.960528,64.2148485 C167.172823,65.0277922 160.263957,65.6773766 157.825126,65.7590563 C157.73497,65.7621385 157.648667,65.7636797 157.566216,65.7636797 C155.411723,65.7636797 155.712242,64.7842944 155.712242,64.7842944 L155.631333,57.6311602 C155.743065,56.9076017 156.501299,56.7935584 156.96826,56.7935584 C157.184017,56.7935584 157.33813,56.8182165 157.33813,56.8182165 C163.434052,56.8182165 170.829913,56.2495411 170.829913,56.2495411 C176.276251,55.3549177 175.625896,51.0474719 175.625896,51.0474719 C175.625896,51.0474719 174.650364,43.1630736 173.83819,42.1875411 C173.025247,41.2120087 171.561177,41.2120087 171.561177,41.2120087" id="Fill-12" sketch:type="MSShapeGroup"></path>
            </g>
        </g>
    </g>
</svg>