<?xml version="1.0" encoding="UTF-8" standalone="no"?>
<svg width="580px" height="200px" viewBox="0 0 580 200" version="1.1" xmlns="http://www.w3.org/2000/svg" xmlns:xlink="http://www.w3.org/1999/xlink" xmlns:sketch="http://www.bohemiancoding.com/sketch/ns">
    <!-- Generator: Sketch 3.2.2 (9983) - http://www.bohemiancoding.com/sketch -->
    <title>writing</title>
    <desc>Created with Sketch.</desc>
    <defs></defs>
    <g id="Page-1" stroke="none" stroke-width="1" fill="none" fill-rule="evenodd" sketch:type="MSPage">
        <g id="writing" sketch:type="MSArtboardGroup" fill="#FFFFFF">
            <path d="M51.4257959,47.3271471 C53.7117381,46.7525588 55.5849677,46.2866765 57.4562551,45.8101176 C61.0026701,44.9094118 64.5908418,44.3862647 68.2634983,44.5007941 C72.2964286,44.6269706 75.4223622,46.3138529 77.5772075,49.7507059 C77.7520034,50.0282941 77.9899201,50.2670588 78.3569915,50.7212941 C79.1493997,49.873 79.8738316,49.1013824 80.5924371,48.3239412 C83.2425374,45.4616765 85.0740102,45.1957353 88.3232721,47.2087353 C88.6039167,47.3844118 88.9098095,47.5164118 89.4225442,47.7833235 C89.9886888,47.2097059 90.5305561,46.6001765 91.1355442,46.0566471 C93.0816054,44.3115294 95.5054422,44.2416471 97.3417704,45.8411765 C98.9285289,47.2262059 98.9634881,49.1363235 97.3058401,50.3815882 C96.140534,51.2512353 94.8363622,51.7908824 93.2729099,51.3725588 C89.7536854,50.4349706 90.3470204,50.8717353 88.7602619,53.4020588 C85.4197177,58.7286471 84.7360714,64.4580294 86.2198946,70.4863529 C87.5114422,75.7314118 90.4567534,77.4212059 96.107517,76.6990882 C98.2147789,76.4302353 100.292908,75.3441471 102.210808,74.3133824 C104.396728,73.1321765 105.619328,71.0755 106.104872,68.6228235 C106.652566,65.8576176 105.473665,63.5942059 102.866293,62.4634706 C102.014648,62.0946471 101.118333,61.8345294 100.237556,61.5365588 C99.3111378,61.2240294 98.7595595,60.6300294 99.0353486,59.6303235 C99.3004558,58.6577941 100.131707,58.7373824 100.916347,58.8354118 C106.141774,59.4934706 109.354134,64.3037059 107.981986,69.4274412 C107.308051,71.9538824 105.898031,74.0843235 104.101517,75.8964118 C101.141639,78.8780588 97.6175595,80.7299412 93.263199,80.6843235 C87.3201378,80.6202647 83.0308401,76.5457353 82.6841616,70.5872941 C82.304466,64.0911471 83.479483,57.9492647 86.8054609,52.2878235 C87.1870986,51.6365588 87.4891071,50.9425882 87.8076241,50.3039412 C86.1053061,48.2336765 84.1068061,47.9463824 82.3870085,49.6060882 C81.3576548,50.5980294 80.3642313,51.7083824 79.6747585,52.9410294 C79.2222313,53.7495294 79.174648,54.8802647 79.2309711,55.8527941 C79.4009116,58.9868235 78.8600153,61.9015 77.2198469,64.6181765 C74.8756395,68.5044118 70.5562381,70.3242647 66.8262874,68.6956176 C63.5556616,67.2659412 61.3357534,64.7424118 60.4239014,61.2482941 C59.0711752,56.0750588 60.0383793,51.5055294 64.251932,47.9114412 C64.5636514,47.6464706 65.0220051,47.5552353 65.2162228,47.1097353 C63.1390646,46.5050588 61.3813946,46.8884412 59.6324643,47.4232353 C57.3678861,48.1133235 55.1207874,48.8810588 52.8280476,49.4546765 C51.1354405,49.8797941 50.5508452,50.9066765 50.3867313,52.5207647 C49.9740187,56.5982059 50.3168129,60.6329412 50.8130391,64.6754412 C51.4170561,69.5623529 52.6930663,74.2765 54.0632721,78.9925882 C55.5791412,84.2075588 56.5308078,89.5749118 56.257932,95.0335 C56.0530323,99.1555882 54.7789643,103.016588 52.2657874,106.369971 C47.7511973,112.400235 41.620716,115.902118 34.4055289,117.698676 C29.9802789,118.800294 25.5686241,118.943941 21.0831667,117.925794 C6.93246599,114.710235 1.3807534,100.120353 7.94822449,88.3383824 C11.6373895,81.7189706 17.0444099,77.2552353 24.9315901,76.0701471 C25.324881,75.0840294 25.7890612,74.0988824 26.1172891,73.072 C28.9839422,64.0562059 34.7153061,57.2601471 42.4208929,51.9879118 C42.9093503,51.6520882 43.3783861,51.2657941 43.9086003,51.0163529 C45.3341582,50.3398529 45.8837942,49.2246471 46.2741718,47.6979118 C48.9582602,37.2194412 55.314034,29.5052059 64.4956752,23.9835294 C65.0054966,23.6777941 65.526,23.3934118 66.0193129,23.0672941 C66.1319592,22.9925588 66.1601207,22.7848529 66.3125816,22.4548529 C63.5556616,21.4638824 60.8327296,20.4059412 58.0622143,19.5023235 C52.030784,17.5359118 45.9925561,15.5782353 39.9135425,13.7671176 C38.1587857,13.2449412 36.251568,13.0682941 34.4065,13.0294706 C28.8023486,12.9159118 23.8905833,17.5883235 22.9194949,23.3371176 C22.7709184,24.2164706 22.9816446,25.1899706 23.183631,26.0858235 C24.0313912,29.8361765 26.2318776,32.6295294 29.4607466,34.6464118 C30.8979575,35.5461471 32.4711207,35.7286176 34.1112891,35.4063824 C36.2059269,34.9967941 37.3314184,33.6874706 37.5275782,31.5715882 C37.6110918,30.6650588 37.6916922,29.7245588 38.0160357,28.8947059 C38.3627143,28.0163235 39.205619,27.7387353 40.1456327,27.9833235 C41.061369,28.2172353 41.587699,28.7957059 41.7042296,29.7585294 C42.2762007,34.4309412 37.3421003,39.3644412 32.6643673,38.8053824 C26.8922177,38.1114118 23.8090119,34.2542941 21.7163163,29.3654412 C20.3004694,26.0567059 20.1713146,22.6499412 21.5793929,19.2325 C23.7206429,14.035 27.829318,11.4648824 33.1178656,10.3603529 C38.1859762,9.30047059 43.0967704,10.2632941 47.8890918,11.7152941 C53.6311378,13.4516765 59.2508265,15.5821176 64.9627687,17.4252647 C73.09175,20.0507059 81.0828367,23.2255 89.6672585,24.1417353 C96.403699,24.8609412 103.04206,24.6241176 109.321117,21.6327647 C112.457733,20.14 115.121429,18.094 116.816949,15.0288824 C117.453012,13.8758235 117.889031,12.5247647 118.055087,11.2173824 C118.400794,8.47547059 117.033502,6.49158824 114.454291,5.49964706 C113.601675,5.17352941 112.670401,4.90079412 111.9819,4.34658824 C111.60706,4.04570588 111.395362,3.06347059 111.610944,2.64514706 C111.841092,2.20158824 112.641269,1.91720588 113.230719,1.82888235 C113.667709,1.76482353 114.204721,2.06376471 114.631029,2.31417647 C119.923461,5.40841176 121.60927,11.0611176 118.702803,16.2382353 C115.830323,21.3542059 111.530344,24.7435 106.089335,26.7264118 C98.7954898,29.3829118 91.3151956,29.3916471 83.7960578,27.9716765 C81.0575884,27.4533824 78.3026105,26.8312353 75.6874694,25.8878235 C71.290381,24.3018824 67.3681548,25.4695 63.9547789,28.0143824 C58.1874847,32.3102059 54.0710408,37.9493235 51.9395017,44.9113529 C51.7481973,45.5441765 51.6598282,46.2080588 51.4257959,47.3271471 L51.4257959,47.3271471 Z M23.8352313,78.9683235 C21.0074218,79.4963235 18.6282551,80.7134412 16.606449,82.5546471 C10.9780204,87.6851765 9.53886735,94.2531471 10.3846854,101.5015 C10.8430391,105.413941 12.9541854,108.387824 16.1073095,110.710441 C18.604949,112.545824 21.3570136,113.684324 24.337284,114.490882 C30.6270238,116.192324 36.4826871,115.010147 41.9033027,111.795559 C50.0915204,106.938735 52.2424813,99.0070882 51.9084269,90.2106471 C51.7909252,87.1377647 50.7926463,84.0600294 49.9215799,81.0647941 C48.1532279,74.9607647 46.5373367,68.8412059 45.9906139,62.4848235 C45.7323044,59.4837647 45.452631,56.4817353 45.1807262,53.4535 C37.557682,56.7282647 28.7324303,68.2132353 27.9963452,75.8682647 C28.7712738,76.0915 29.6268027,76.2118529 30.3580323,76.5767941 C31.8515663,77.3260882 33.4742551,77.9880294 34.6852024,79.0857647 C36.7866378,80.9861765 37.0177568,83.7455588 35.6786259,86.3030588 C34.274432,88.9847941 31.6757993,90.4008824 29.0121037,89.9320882 C26.5639898,89.5030882 24.5004269,87.2406471 24.1430663,84.4007059 C23.9342823,82.7390588 23.9449643,81.0521765 23.8352313,78.9683235 L23.8352313,78.9683235 Z M69.8094711,48.0046176 C68.3392432,47.7891471 67.1457755,48.3598529 66.0853469,49.2139706 C63.2662772,51.4783529 62.2194439,54.4027353 62.846767,57.9783824 C63.4604949,61.4686176 65.1463044,64.1522941 68.5072415,65.4868529 C69.3705391,65.8294706 70.4843776,65.7362941 71.4515816,65.6042941 C74.9513844,65.1277353 78.2831888,58.9169412 76.9741616,55.3364412 C70.8213452,57.2397647 67.9546922,54.7220588 69.8094711,48.0046176 L69.8094711,48.0046176 Z M27.1010017,78.7470294 C26.0463997,81.0026765 26.083301,83.7348824 27.1476139,85.5625 C27.9575017,86.9533529 29.5908724,87.7560294 31.1941395,87.5531765 C32.6536854,87.3677941 34.044284,86.1283529 34.3899915,84.7074118 C34.8065884,83.0011176 34.2889983,81.6219118 32.7226327,80.5746471 C31.0174014,79.4342059 29.0995017,78.9110588 27.1010017,78.7470294 L27.1010017,78.7470294 Z M75.8865425,52.4712647 C75.9632585,52.2538529 76.0428878,52.0364412 76.1205748,51.8170882 C75.3874031,50.9406471 74.717352,49.9972353 73.8958112,49.2159118 C73.4131803,48.7529412 72.6829218,48.6005588 72.136199,49.2955 C71.1097585,50.6019118 71.8574966,52.5741471 73.5170867,52.7498235 C74.289102,52.8294118 75.0960765,52.5751176 75.8865425,52.4712647 L75.8865425,52.4712647 Z M92.0473963,48.5908529 C92.9932364,48.6995588 93.8613895,48.8907647 94.7246871,48.8665 C95.4219286,48.8490294 96.1657823,48.4093529 95.8909643,47.6280294 C95.733648,47.1864118 94.9247313,46.7127647 94.4100544,46.7147059 C93.3797296,46.7176176 92.5203163,47.2601765 92.0473963,48.5908529 L92.0473963,48.5908529 Z" id="Shape" sketch:type="MSShapeGroup"></path>
            <path d="M195.105128,72.7905294 C196.514177,72.3692941 197.117223,73.1515882 197.758141,73.7669412 C200.693741,76.5651471 201.326891,80.0243235 200.428634,83.8047647 C199.136116,89.2487941 194.801177,93.4592059 189.728211,94.0959118 C184.745556,94.7229118 178.600509,92.7943529 175.757162,87.3105294 C174.904546,85.6624706 174.066497,83.9823824 173.468306,82.2314412 C172.874,80.4872941 172.587529,78.6363824 172.139857,76.7243235 C171.059036,76.5787353 169.882077,76.5146765 168.75173,76.2497059 C165.280088,75.4402353 163.734116,73.6067941 163.529216,70.0301765 C163.456384,68.7703529 163.602048,67.495 163.671966,66.2264412 C163.689446,65.8925588 163.816658,65.5654706 163.851617,65.2315882 C164.098274,62.8410294 163.251485,61.0842647 161.629767,60.5882941 C160.051748,60.1107647 157.893019,61.2657647 156.855896,63.1739412 C155.597366,65.4897647 155.151636,67.9540882 155.717781,70.5387647 C156.18973,72.6886176 156.783065,74.8112941 157.247245,76.9572647 C157.399706,77.6599706 157.600721,78.6072647 157.271522,79.0964412 C156.860752,79.7020882 155.929478,80.2038824 155.198248,80.2397941 C154.821466,80.2572647 154.177634,79.2158235 154.019347,78.5674706 C152.770527,73.4718824 151.584828,68.3588235 150.433117,63.2409118 C149.950486,61.0988235 149.593126,58.9285882 149.179442,56.7719412 C148.87452,55.1821176 148.50842,54.9045294 146.898355,55.4305882 C143.046048,56.6855588 139.219959,58.0230294 135.214219,59.3837941 C135.123908,63.172 135.035539,66.9650588 136.182395,70.6542647 C136.813602,72.6954118 137.899279,74.3978235 140.320202,74.5502059 C142.20023,74.6666765 143.91323,73.1399412 144.833821,70.7027941 C145.414532,69.1731471 145.754413,67.6367059 145.348498,65.9896176 C145.237794,65.5344118 145.332961,65.0238824 145.332961,64.0843529 C145.91173,64.7521176 146.303078,65.0481471 146.488556,65.4373529 C148.578338,69.8292647 145.467942,75.5965 142.980985,77.2736765 C141.096102,78.5461176 138.200316,78.4053824 136.289214,76.9931765 C133.743991,75.118 132.460213,72.4964412 132.058182,69.4536471 C131.684313,66.6195294 131.507575,63.7553235 131.243439,60.9037353 C128.465155,60.8998529 127.992235,61.1900588 122.596867,66.2138235 C122.143369,61.9849706 124.010772,59.9680882 131.594002,56.5622941 C132.263082,53.4088529 132.795238,50.1544706 133.660478,46.9922941 C134.846177,42.6722059 136.284359,38.4229706 137.609895,34.1426765 C137.978908,32.9527353 138.675179,32.0015588 139.825918,31.5133529 C140.222122,31.3454412 140.83585,31.3959118 141.209719,31.6026471 C141.435012,31.7249412 141.499104,32.3597059 141.436954,32.7295 C141.339845,33.3050588 141.084449,33.8553824 140.876636,34.4076471 C138.400361,40.9222353 136.809718,47.6668529 135.596828,54.5133824 C135.569638,54.6696471 135.622077,54.8414412 135.667718,55.3432353 C140.048298,54.7812647 144.088026,53.2438529 148.239429,51.6278235 C148.278272,50.8765882 148.377323,50.2165882 148.331682,49.5701765 C147.983061,44.5842647 148.791978,39.7575294 150.532168,35.1152059 C151.891692,31.5007353 154.071786,28.3482647 157.097697,25.9091765 C159.914825,23.6409118 163.191277,23.1284412 166.378389,24.8386176 C169.448,26.4827941 171.293068,29.1946176 171.299866,32.8653824 C171.309577,37.8561471 168.878942,41.7608235 165.641333,45.253 C162.611537,48.5209706 158.969956,50.9687941 154.937026,52.8585294 C151.98783,54.2367647 152.311202,54.5551176 152.839474,56.8835588 C153.348325,59.1450294 153.658102,61.4521176 154.150444,64.3027353 C155.27982,62.5634412 156.046009,61.2948824 156.900566,60.0835882 C158.187259,58.2540294 159.898316,57.1174706 162.216304,57.0980588 C165.799621,57.067 168.055459,59.5740294 167.637891,63.1535588 C167.439789,64.8355882 167.11059,66.5040294 166.964927,68.1889706 C166.885298,69.0945294 166.954245,70.0476471 167.152347,70.9405882 C167.586423,72.9167059 168.5915,73.6650294 170.525908,73.6349412 C172.143741,73.6116471 172.73999,73.0642353 172.923526,71.4025882 C173.324585,67.7405588 174.259743,64.2561471 176.333017,61.1463824 C178.213044,58.3316765 181.101061,57.2970294 184.297884,58.3006176 C186.494486,58.9897353 187.60444,60.6319706 187.368466,62.9303235 C187.136376,65.2131471 185.988549,67.0805588 184.576587,68.8072353 C182.727634,71.0687059 180.491218,72.9031176 177.911036,74.2231176 C176.446634,74.9743529 176.024211,76.0313235 176.117435,77.4920588 C176.322335,80.7561471 177.12931,83.8445588 178.891835,86.6252941 C183.180162,93.4 192.607488,93.4145588 196.859884,86.6437353 C197.440595,85.7158529 197.905747,84.7015882 198.307777,83.6824706 C199.682838,80.1970882 199.285663,77.0562647 196.416097,74.4104412 C195.961628,73.9911471 195.625631,73.4408235 195.105128,72.7905294 L195.105128,72.7905294 Z M152.051922,50.005 C152.291781,50.1350588 152.530668,50.2651176 152.768585,50.3980882 C157.050114,48.3142353 161.637536,46.8379706 165.158702,43.3040588 C167.456298,40.9969706 168.838156,38.2754412 169.443145,35.1385 C170.152039,31.4541471 168.877,28.5074412 165.858857,26.6351765 C163.583597,25.2249118 160.826677,25.2938235 158.769912,26.9748824 C157.801736,27.763 156.952034,28.7287353 156.187787,29.7226176 C152.766643,34.1659706 152.035413,39.4187941 151.847993,44.7958529 C151.788757,46.5283529 151.978119,48.2676471 152.051922,50.005 L152.051922,50.005 Z M176.788457,71.7403529 C180.941803,69.9272941 183.649197,67.1417059 184.862087,62.9992353 C185.144673,62.0286471 185.238869,60.9707059 184.223111,60.2398529 C183.33942,59.6060588 181.957561,59.674 180.892277,60.3961176 C177.957648,62.3887353 175.920304,67.7308529 176.788457,71.7403529 L176.788457,71.7403529 Z" id="Shape" sketch:type="MSShapeGroup"></path>
            <path d="M341.059719,70.8891471 C341.859896,72.6497941 341.136435,73.3855 340.069209,73.8707941 C338.066825,74.7744118 336.074151,73.6718235 335.394389,71.3511471 C334.372804,67.8502353 337.044269,62.7167941 340.631469,61.3540882 C341.641401,60.9716765 342.687264,60.6863235 344.014741,60.2563529 C343.292252,57.9143235 342.615403,55.7178824 341.89874,53.3904118 C338.965082,55.0569118 336.343143,56.5419118 333.568743,58.1142647 C333.767816,58.8917059 333.90474,59.6186765 334.146541,60.3107059 C334.878741,62.4275588 334.633056,64.5046176 333.85133,66.5234412 C333.08417,68.5102353 331.746981,69.9661176 329.618355,70.5902059 C327.372228,71.2472941 325.104736,71.4782941 322.862493,70.7581176 C315.845408,68.5034412 313.913913,59.5895588 319.314136,54.526 C322.261389,51.7617647 327.253755,51.6802353 330.540889,54.3619706 C331.119658,54.8375588 331.649872,55.3752647 332.211162,55.8896765 C335.053537,54.9336471 337.517189,53.5068824 339.768172,51.6715 C340.790728,50.8387353 341.096621,49.9952941 340.771306,48.6054118 C339.690485,43.9892941 338.839811,39.3295 339.476845,34.5328529 C339.862367,31.6075 340.847051,28.9529412 342.696003,26.6448824 C344.719752,24.1242647 348.029221,23.9029706 350.19669,26.3148824 C353.094418,29.5401471 353.928583,33.4933529 353.407109,37.6824118 C352.805034,42.5149706 350.436549,46.4827353 346.697859,49.5546471 C345.442241,50.5873529 345.123724,51.5792941 345.608298,53.0701176 C346.185124,54.8385294 346.632796,56.6496471 347.088236,58.4568824 C347.311587,59.3391471 347.779651,59.7962941 348.70607,59.6507059 C352.883692,58.9936176 357.118609,58.5985882 361.0185,56.7515588 C363.40058,55.6247059 365.277694,53.9882941 366.375024,51.5637647 C367.273281,49.5779412 366.808129,47.5105882 365.249532,46.2886176 C363.853107,45.1928235 361.84781,45.3801471 360.12607,46.7574118 C359.691993,47.101 359.223929,47.4047941 358.77043,47.7299412 C358.616998,47.6357941 358.464537,47.5445588 358.305279,47.4494412 C358.505323,46.8971765 358.557762,46.2119412 358.923862,45.8149706 C360.555291,44.0640294 362.63342,43.3846176 364.935871,44.0135588 C367.228611,44.6395882 368.770699,46.1944706 369.158163,48.6034706 C369.793255,52.5265882 368.221063,55.5849118 365.065997,57.8104706 C361.969196,59.9933235 358.361602,61.0085588 354.733616,61.8966471 C352.851646,62.3586471 350.931804,62.6537059 348.909998,63.0487353 C348.514765,65.1209412 349.322711,67.0562941 349.496536,69.0421176 C349.922844,73.9232059 350.690003,78.8023529 350.728847,83.6882941 C350.798765,91.9761471 346.479364,97.7744412 339.233102,101.385029 C333.666823,104.158 327.897587,103.948353 322.259447,101.517029 C320.838745,100.898765 319.550111,99.769 318.462491,98.6285588 C317.199105,97.3017647 316.992264,95.6032353 317.89926,93.9115 C318.79169,92.2459706 320.172578,91.1657059 322.052605,90.9094706 C322.603213,90.8347353 323.220825,91.2152059 323.802507,91.8480294 C323.218883,92.1013529 322.628461,92.3352647 322.055519,92.6138235 C319.200519,93.9978824 318.98785,96.5107353 321.575801,98.2568235 C325.701956,101.048235 330.204893,101.084147 334.748616,99.7573529 C336.832571,99.1497647 338.85632,98.1597647 340.733434,97.0494118 C345.811255,94.0483529 347.870934,89.2963529 347.956389,83.6009412 C348.057383,77.0222941 346.472566,70.6795 345.041182,64.3182647 C345.011078,64.1726765 344.844051,64.0552353 344.741116,63.9232353 C341.119927,63.8310294 337.642459,66.8553824 337.454068,70.267 C337.436588,70.5989412 337.468634,70.9473824 337.541466,71.2764118 C337.887173,72.8555588 338.829129,73.1496471 340.014828,72.0499706 C340.305184,71.7801471 340.552811,71.4569412 341.059719,70.8891471 L341.059719,70.8891471 Z M344.304126,47.6775294 C346.915383,46.3468529 348.519621,44.2513529 349.863607,42.0549118 C352.149549,38.3220294 352.82834,33.1924706 349.635401,28.7151471 C348.0904,26.5487941 345.69958,27.0049706 344.577973,28.5511176 C344.089515,29.2247059 343.652526,29.9749706 343.367026,30.7543529 C341.276272,36.4711176 342.358065,42.0005588 344.304126,47.6775294 L344.304126,47.6775294 Z M322.481827,55.2005588 C319.943401,55.9440294 318.748963,57.5464706 318.632432,60.2301471 C318.432388,64.8035588 322.225459,69.0013529 326.795401,69.2711765 C329.471721,69.4303529 331.334269,67.8871176 331.637248,65.2044118 C331.867396,63.1613235 331.630451,61.1949118 330.501075,59.4381471 C326.067085,60.1408529 324.486153,60.0777647 322.481827,55.2005588 L322.481827,55.2005588 Z M328.696793,57.0475882 C327.405245,54.8501765 327.283859,54.7861176 325.087257,55.0850588 C325.125129,57.6241176 326.342874,58.288 328.696793,57.0475882 L328.696793,57.0475882 Z" id="Shape" sketch:type="MSShapeGroup"></path>
            <path d="M566.610546,46.7292647 C567.213592,47.5921176 567.712731,48.1346765 568.007942,48.7665294 C571.957359,57.1776471 574.81333,65.8566471 575.222158,75.2771765 C575.45619,80.6183235 575.060957,85.8226176 572.960493,90.7114706 C568.438134,101.220029 558.826301,107.137706 546.997473,103.465971 C541.508881,101.761618 538.519871,96.2845882 539.889105,90.8366765 C540.411551,88.7644706 541.574915,87.1445588 543.42581,86.0749706 C544.952361,85.1907647 547.043114,85.4809706 548.089947,86.7281765 C548.361852,87.0581765 548.561896,87.7075 548.420117,88.0588529 C548.278338,88.4160294 547.685974,88.6285882 547.256753,88.8149412 C547.054767,88.9013235 546.758585,88.7732059 546.509015,88.7479706 C544.048277,88.4878529 543.187893,89.0818529 542.589702,91.4685294 C541.617643,95.347 543.736558,99.8874118 547.818043,101.403471 C555.313874,104.196824 563.445769,103.153441 568.028335,95.3266176 C571.740806,88.9838235 572.882806,82.048 572.212755,74.7812059 C572.04767,73.0370588 571.817522,71.2977647 571.584461,69.2333235 C570.578413,70.7260882 569.819022,71.9208824 568.99651,73.0690882 C566.172585,77.0155 560.323719,75.8022647 558.589355,72.2295294 C557.753248,70.5018824 557.215265,68.6267059 556.482094,66.6573824 C556.028595,67.4377353 555.606172,68.2404118 555.115772,68.9965 C554.469998,69.9826176 553.875692,71.0298824 553.077457,71.884 C550.137002,75.0374412 545.523361,74.3861765 543.614201,70.5106176 C542.758672,68.7781176 542.198354,66.8990588 541.372929,64.7404706 C540.439713,66.1847059 539.693917,67.4455 538.845185,68.6296176 C538.008107,69.7933529 537.174913,70.9978529 536.144588,71.9771765 C533.886808,74.1182941 531.279435,73.7688824 529.859704,70.9813529 C529.117793,69.5332353 528.657497,67.7434706 528.707022,66.1284118 C528.780825,63.7038824 529.375131,61.2871176 529.819889,58.882 C530.011194,57.8570588 530.598702,57.133 531.797997,57.5435588 C532.926401,57.9288824 532.974956,58.7946471 532.739952,59.8244412 C532.246639,61.9665294 531.665929,64.1037647 531.428012,66.2769118 C531.289146,67.5658529 531.535803,68.9974706 531.984446,70.2213824 C532.570012,71.8170294 533.900403,72.1130588 534.890913,70.7882059 C536.904951,68.0870588 538.702435,65.2141176 540.43777,62.3256471 C540.817466,61.6918529 540.710646,60.6688529 540.598971,59.8516176 C539.795881,53.8834706 539.293828,47.9017353 539.650218,41.8705 C539.956111,36.7137647 540.257148,31.5444118 541.854588,26.5817941 C542.33819,25.0725294 543.066507,23.6108235 543.864741,22.2345294 C544.947505,20.3574118 546.769267,19.6498529 548.847396,19.8701765 C550.874058,20.0875882 552.134531,21.3076176 552.898777,23.2458824 C554.161192,26.4565882 554.047575,29.7808529 553.630007,33.0294118 C552.63367,40.9144706 550.222457,48.4297353 546.291491,55.3277059 C544.295905,58.8247353 543.63168,62.1732647 545.004799,65.9284706 C545.466066,67.1931471 545.785554,68.5412941 546.434241,69.7050294 C547.856886,72.2528235 550.660418,72.4061765 552.449163,70.1495588 C554.648679,67.3736765 555.154616,63.9824412 555.837291,60.6766176 C556.159692,59.1081471 556.257772,57.4892059 556.421886,55.8896765 C556.529677,54.8773529 556.852078,54.1086471 558.376687,53.9882941 C558.436895,55.3024706 558.572847,56.5234706 558.537888,57.7376765 C558.439808,61.2415 558.801053,64.6754412 559.920718,68.0065 C560.241177,68.9654412 560.61893,69.9224412 561.106417,70.8056765 C562.771833,73.8212941 566.445461,74.1037353 568.400262,71.2307941 C570.159874,68.6402941 571.083379,65.6586471 570.159874,62.545 C569.148,59.1489118 567.825378,55.8421176 566.588211,52.5149412 C565.942437,50.7698235 565.037383,49.0742059 566.610546,46.7292647 L566.610546,46.7292647 Z M543.10535,56.9000588 C543.670524,56.1624118 544.027884,55.8197941 544.229871,55.4024412 C545.546667,52.7585588 546.971253,50.1573824 548.085092,47.431 C550.522524,41.4521765 552.093745,35.2578824 552.127733,28.7413529 C552.135502,26.7419412 551.719876,24.8648235 550.62643,23.2031765 C549.513563,21.5075588 547.947197,21.4017647 546.694493,23.0139118 C545.99531,23.9175294 545.477719,25.0405 545.151434,26.1430882 C542.525611,35.0103824 542.342075,44.1183824 542.633401,53.2593824 C542.669332,54.3328529 542.906277,55.3985588 543.10535,56.9000588 L543.10535,56.9000588 Z" id="Shape" sketch:type="MSShapeGroup"></path>
            <path d="M255.73115,66.3438824 C254.920291,67.726 254.329869,68.7247353 253.746245,69.7244412 C252.745053,71.4365588 251.230155,72.181 249.285065,72.0596765 C247.339974,71.9373824 245.884313,71.1182059 245.288065,69.1265588 C245.195811,68.8169412 244.946241,68.5519706 244.689874,68.1404412 C244.126643,68.5849706 243.635272,69.0236765 243.094376,69.3934706 C240.295699,71.2987353 237.093049,70.5018824 235.637388,67.4532647 C234.183668,64.4056176 234.485677,61.3278824 235.973384,58.3986471 C237.201811,55.9750882 240.890976,54.0940882 244.282988,56.5700588 C245.059859,55.7392353 245.744476,54.6347059 247.372991,55.3471176 C247.189456,56.8495882 246.873852,58.3375 246.856372,59.8292941 C246.82724,62.2674118 246.918522,64.7142647 247.104,67.1485 C247.220531,68.6723235 248.243087,69.5584706 249.734679,69.8438235 C251.04759,70.0922941 252.310976,69.4953824 253.056772,68.0346471 C254.252182,65.6887353 255.165005,63.2981765 254.516318,60.5057941 C253.926867,57.9725588 253.69769,55.3548824 253.290804,52.6401471 C250.589236,52.2043529 247.601197,52.0937059 246.573786,48.6617059 C248.557719,49.7186765 250.519318,50.7086765 253.105327,50.3641176 C253.29566,49.1984412 253.592813,47.9813235 253.680211,46.7486765 C254.055051,41.4832353 255.341743,36.3992941 256.717776,31.3386471 C257.688864,27.7746471 259.494117,24.5988824 261.936405,21.8462941 C262.926915,20.7310882 264.158255,19.7216765 265.472138,19.0228529 C267.855189,17.7591471 269.974104,18.7045 271.027735,21.1989118 C272.005621,23.5079412 271.775473,25.9373235 271.281189,28.2152941 C269.723563,35.3724118 266.398556,41.7113235 261.660616,47.2873529 C260.789549,48.3103529 259.829143,49.4119706 258.670634,50.0020882 C256.584736,51.0629412 256.364299,52.7148824 256.572112,54.6686765 C256.631349,55.2374412 256.726515,55.8062059 256.863439,56.8049412 C257.44415,56.1167941 257.81025,55.7411765 258.109345,55.318 C259.871871,52.8109706 261.730534,50.3786765 264.405883,48.7820588 C265.627512,48.0550882 266.962759,47.4164412 268.32908,47.0650882 C270.783991,46.4322647 272.365895,47.2854118 273.021379,49.2916176 C273.808932,51.6977059 273.041772,53.9436471 270.888869,54.8763824 C269.187522,55.6130588 267.368673,56.0740882 265.592553,56.6282941 C263.425083,57.3009118 262.197628,58.7189412 261.954855,60.9289706 C262.11023,61.1366765 262.186946,61.3463235 262.318043,61.3880588 C266.08101,62.6391471 268.321311,65.3276765 269.545854,68.9848529 C270.055675,70.5077059 270.555786,72.0354118 271.044243,73.5631176 C273.107806,79.9990882 276.959143,84.8743529 283.61207,86.8038824 C289.823151,88.6023824 295.865264,87.9443235 301.335405,84.1502941 C301.817065,83.8193235 302.287071,83.4718529 302.787182,83.1670882 C302.903713,83.0962353 303.110554,83.1777647 303.381488,83.1962059 C303.833044,84.0765294 303.199895,84.5637647 302.621126,85.0160588 C300.678949,86.5476471 298.597906,87.8346471 296.17407,88.4781471 C287.941182,90.6590588 280.372519,89.4836765 273.817672,83.8096176 C270.722813,81.1298235 269.107893,77.4590588 267.748369,73.6786176 C267.121046,71.9286471 266.469446,70.1845 265.72365,68.4820882 C264.749648,66.2458529 263.242519,64.5046176 260.962403,63.4224118 C259.369818,62.6653529 259.200849,62.1810294 259.834969,60.6115882 C260.878889,58.0104118 262.436515,55.8673529 265.370173,55.1005882 C266.344175,54.8424118 267.343425,54.5182353 268.193128,53.9970294 C268.958345,53.5292059 269.69443,52.8478529 270.154726,52.0869118 C270.891782,50.8649412 270.281939,49.6410294 268.866092,49.4663235 C268.07077,49.3682941 267.086087,49.4469118 266.420891,49.8419412 C262.372423,52.2325 259.074607,55.3092647 258.030687,60.1486176 C257.844238,61.0250588 257.798597,62.0364118 258.041369,62.8837353 C259.136757,66.6962059 260.357415,70.4717941 261.541172,74.26 C261.765493,74.9830882 262.161697,75.6916176 262.209281,76.4224706 C262.242298,76.9097059 261.912128,77.6774412 261.527577,77.8540882 C261.158563,78.0287941 260.320514,77.7618824 260.027245,77.4124706 C259.501886,76.7835294 259.156179,75.9682353 258.865823,75.1801176 C257.848122,72.4090882 256.885774,69.6147647 255.73115,66.3438824 L255.73115,66.3438824 Z M256.430333,48.3433529 C256.823624,48.4151765 256.928502,48.4695294 256.978027,48.4355588 C257.190696,48.3025882 257.395595,48.1540882 257.589813,47.9890882 C262.747264,43.6233824 266.219876,38.1026765 268.497078,31.8113235 C269.507981,29.0257353 270.151813,26.1353235 269.55168,23.1255294 C269.154505,21.1406765 268.095048,20.5233824 266.301447,21.4357353 C265.343954,21.9210294 264.354415,22.5907353 263.734861,23.4370882 C262.452053,25.1928824 260.984738,26.9923529 260.345762,29.0092353 C259.031879,33.1711176 258.129738,37.4679118 257.226626,41.7482059 C256.770214,43.9184412 256.681845,46.1624412 256.430333,48.3433529 L256.430333,48.3433529 Z M244.000401,62.677 C244.000401,61.5161765 244.110134,60.4038824 243.978066,59.3216765 C243.724612,57.2494706 242.42044,56.5943235 240.550124,57.5668529 C239.971355,57.8677353 239.407153,58.321 239.021631,58.8422059 C237.354272,61.0871765 237.423219,64.9452647 239.095434,67.2047941 C239.819866,68.1850882 240.704527,68.6878529 241.934896,68.2015882 C243.3925,67.6279706 244.248029,66.2497353 244.146065,64.6346765 C244.104308,63.9620588 244.047014,63.2913824 244.000401,62.677 L244.000401,62.677 Z" id="Shape" sketch:type="MSShapeGroup"></path>
            <path d="M460.077289,122.878706 C460.472522,121.702353 460.789097,120.672559 461.164908,119.664118 C462.459369,116.174853 463.743148,112.684618 465.109469,109.222529 C465.415362,108.440235 465.646481,107.361912 467.098259,107.477412 C467.267228,109.428294 466.177667,111.020059 465.789231,112.763235 C465.405651,114.496706 464.867668,116.198147 464.460782,117.925794 C464.03933,119.720412 463.688767,121.529588 463.291592,123.420294 C466.844804,124.561706 470.262065,124.610235 473.723995,124.167647 C475.004861,124.000706 475.282592,123.186382 475.508855,122.091559 C476.2799,118.371294 476.909165,114.590853 478.057963,110.986088 C478.841631,108.538265 480.235143,106.222441 481.688862,104.077441 C482.500692,102.8875 483.89032,101.944088 485.213913,101.276324 C488.157282,99.7922941 491.362845,101.409294 492.146514,104.607382 C492.627202,106.557294 492.399968,108.465471 491.766818,110.356176 C489.780942,116.255412 485.896588,120.622088 480.619694,123.714382 C479.074692,124.619941 478.418236,125.556559 478.515345,127.281294 C478.646442,129.621382 478.632847,131.971176 478.688199,134.671353 C479.383498,134.353971 479.746685,134.243324 480.05452,134.0395 C484.032099,131.408235 488.027156,132.142971 490.921971,136.042794 C493.355519,139.3195 493.928461,142.998029 493.137024,146.901735 C492.737906,148.887559 492.123207,150.835529 491.52793,152.776706 C491.214269,153.812324 490.894781,154.967324 489.081759,154.802324 C489.192463,154.165618 489.247815,153.548324 489.4129,152.963059 C490.514114,149.001118 491.14435,144.979 490.069355,140.939412 C489.623626,139.267088 488.867148,137.548176 487.812546,136.191294 C485.848034,133.660971 482.403583,133.804618 480.32157,136.204882 C479.539844,137.111412 479.247546,138.133441 479.451474,139.269029 C480.185617,143.341618 480.953748,147.409353 481.724793,151.475147 C481.866571,152.221529 482.164696,152.937824 482.276371,153.686147 C482.41815,154.668382 481.917068,155.285676 480.976083,155.580735 C479.977804,155.892294 479.589369,155.257529 479.281534,154.509206 C479.024196,153.882206 478.76006,153.254235 478.564871,152.605882 C476.185704,144.774206 474.971844,136.773647 475.179656,128.574118 C475.195194,127.921882 475.183541,127.271588 475.183541,126.747471 L462.913838,126.747471 C462.738071,127.277412 462.384595,127.960706 462.292342,128.677971 C461.766012,132.876735 461.213463,137.074529 460.84542,141.289794 C460.606532,144.013265 460.987199,146.751294 462.21951,149.210765 C462.913838,150.606471 463.913088,151.989559 465.11044,152.963059 C467.278881,154.722735 470.189233,153.848235 471.072923,151.183971 C471.73035,149.196206 471.925539,147.055088 472.32757,144.981912 C472.463522,144.290853 472.609185,143.598824 472.751935,142.907765 C472.957806,142.889324 473.16659,142.872824 473.378287,142.855353 C473.571534,143.4115 473.893935,143.956971 473.949287,144.527676 C474.182349,147.095853 473.810422,149.619382 472.863611,152.005088 C470.970959,156.749324 465.496934,157.862588 461.868947,154.2355 C459.184859,151.551824 457.857381,148.193588 457.531095,144.455853 C457.11644,139.701912 457.476714,134.983882 458.441976,130.3105 C458.747869,128.820647 459.032398,127.326912 459.378105,125.557529 C458.170071,125.0305 456.932905,124.549088 455.747206,123.960912 C453.021361,122.611794 450.2994,121.243265 447.620167,119.806794 C446.94526,119.446706 446.421844,118.7935 445.533298,118.017029 C447.910522,117.377412 449.144776,118.835235 450.641223,119.356441 C452.156121,119.883471 453.594303,120.626941 455.098519,121.191824 C456.664884,121.782912 458.274949,122.272088 460.077289,122.878706 L460.077289,122.878706 Z M479.079548,121.958588 C484.465204,118.761471 488.300032,114.408382 490.326694,108.626588 C490.732609,107.467706 490.774366,106.138971 490.767568,104.887882 C490.759799,103.688235 489.946027,102.8875 488.850639,102.442 C487.770789,101.9965 486.864764,102.388618 486.100517,103.168 C485.624684,103.6465 485.159532,104.1415 484.740022,104.667559 C480.710976,109.726265 479.977804,115.860382 479.079548,121.958588 L479.079548,121.958588 Z" id="Shape" sketch:type="MSShapeGroup"></path>
            <path d="M234.280777,131.874118 C233.739881,127.401647 231.915206,122.618588 229.113616,118.200471 C228.397923,118.452824 227.622024,118.701294 226.864575,118.992471 C220.848682,121.299559 214.608468,121.451941 208.340092,120.671588 C204.89467,120.244529 201.965867,118.502324 199.509985,116.014706 C196.119915,112.584647 196.486015,108.146147 200.392704,105.353765 C203.947859,102.813735 207.925437,102.428412 212.035083,103.313588 C218.684126,104.747147 224.265942,108.133529 228.965039,113.009765 C229.315602,113.371794 229.620524,113.781382 230.064311,114.309382 C234.627456,111.518941 237.204724,107.364824 239.195456,102.493441 C240.3326,105.627471 237.632003,110.527971 231.911321,116.341794 C233.387376,119.884441 235.047937,123.310618 236.250145,126.890147 C237.760187,131.391735 238.68175,136.044735 238.367117,140.860794 C238.192321,143.522147 237.580536,146.040824 236.22781,148.355676 C233.48934,153.052353 228.845595,153.580353 225.12924,149.621324 C224.965126,149.445647 224.744689,149.322382 224.546587,149.175824 C221.813944,153.035853 218.865719,153.361 215.58344,150.019265 C214.609439,149.028294 213.806349,148.859412 212.725527,149.535912 C207.712769,152.681588 203.194294,148.802147 202.435874,143.835647 C202.021219,141.113147 202.490255,138.5935 203.866287,136.263118 C205.927908,132.777735 209.786043,132.141029 213.616986,134.706294 C214.192842,132.850529 215.523233,132.097353 217.621755,132.186647 C217.524646,132.821412 217.449872,133.362029 217.361503,133.896824 C216.869162,136.889147 216.258347,139.866912 215.92235,142.878647 C215.69026,144.945029 216.411779,146.901735 217.559605,148.639088 C218.345216,149.827088 219.406616,150.655971 220.951617,150.391971 C222.223743,150.173588 223.229791,148.853588 223.242415,147.121088 C223.253097,145.784588 222.973423,144.442265 222.799599,143.105765 C222.432527,140.281353 222.694721,137.494794 223.805646,134.894588 C225.573998,130.761824 228.760139,129.568 232.929993,131.264588 C233.316486,131.422794 233.693269,131.608176 234.280777,131.874118 L234.280777,131.874118 Z M227.05685,115.538147 C226.068282,114.450118 225.395318,113.581441 224.59417,112.851559 C221.706153,110.208647 218.461747,108.050059 214.919216,106.408794 C213.25477,105.638147 211.42524,105.094618 209.613189,104.803441 C206.777611,104.345324 204.024575,104.864588 201.649293,106.599029 C199.268184,108.337353 198.951609,110.997735 200.881162,113.194176 C202.578624,115.127588 204.62665,116.603853 207.167017,117.288118 C213.253799,118.928412 219.238617,118.294618 225.161286,116.460206 C225.707037,116.291324 226.203264,115.957441 227.05685,115.538147 L227.05685,115.538147 Z M235.655838,140.565735 C235.563585,139.577676 235.445112,139.071029 235.483956,138.572147 C235.632532,136.511588 234.467226,135.036294 233.218406,133.668735 C231.46365,131.746 228.027939,131.846941 226.542173,133.971559 C225.705095,135.170235 224.992316,136.666882 224.840827,138.093647 C224.506772,141.273294 225.401145,144.290853 227.076272,147.018206 C228.069696,148.638118 229.993422,149.317529 231.964731,148.822529 C233.756389,148.373147 234.959568,147.210382 235.240213,145.373059 C235.509204,143.631824 235.54999,141.853706 235.655838,140.565735 L235.655838,140.565735 Z M212.875075,140.785088 C212.958588,140.782176 213.04016,140.776353 213.121731,140.773441 C213.121731,139.844588 213.177083,138.914765 213.111049,137.997559 C212.937224,135.541 210.811512,134.130735 208.459536,134.842176 C206.59019,135.409971 205.389925,136.672706 205.013143,138.531382 C204.419808,141.461588 204.934485,144.243294 206.739738,146.683353 C207.912813,148.266382 209.903544,148.825441 211.706855,148.214941 C213.081917,147.749059 213.523762,147.014324 213.360619,145.545824 C213.183881,143.959882 213.036276,142.372971 212.875075,140.785088 L212.875075,140.785088 Z" id="Shape" sketch:type="MSShapeGroup"></path>
            <path d="M540.973811,165.363294 C540.787362,161.910912 540.61548,158.736118 540.415435,155.079912 C539.470566,155.768059 538.911219,156.192206 538.330509,156.595971 C535.57456,158.510941 532.466105,158.034382 530.511304,155.317706 C528.556503,152.601029 527.55434,149.594147 528.289454,146.225235 C529.287733,141.676088 532.722473,139.097235 537.51091,139.308824 C537.456529,138.564382 537.188509,137.759765 537.403119,137.118206 C537.618701,136.488294 538.246995,135.870029 538.853925,135.567206 C539.073391,135.455588 539.971648,136.200029 540.186259,136.709588 C540.673745,137.872353 541.021395,139.114706 541.261253,140.352206 C542.697493,147.836412 544.204622,155.317706 543.670524,163.0135 C543.654015,163.258088 543.740442,163.510441 543.812303,163.989912 C546.447837,163.478412 548.702704,162.153559 550.935236,160.885971 C553.210497,159.598971 555.55956,158.293529 557.45124,156.538706 C559.301163,154.826588 560.61893,152.540853 562.311537,150.313353 C562.757267,152.137088 562.157134,153.527941 561.324912,154.8955 C559.10209,158.551706 555.881961,161.146088 552.263685,163.260029 C549.931131,164.629529 547.518947,165.891294 545.062094,167.016206 C543.816187,167.582059 543.275291,168.299324 543.129628,169.648441 C542.751874,173.099853 542.330422,176.548353 541.72252,179.961912 C540.461077,187.052059 536.58352,192.103971 529.926709,195.100176 C521.054845,199.091235 512.233478,199.386294 503.450954,195.064265 C501.585493,194.147059 499.821026,192.840647 498.333318,191.382824 C494.31107,187.426706 494.437311,181.299382 498.414889,177.266588 C500.540602,175.109941 503.032415,173.611353 505.92723,172.677647 C510.553495,171.187794 515.30406,170.3725 520.105121,169.819265 C525.583031,169.188382 531.032779,168.460441 536.330066,166.8745 C537.784757,166.436765 539.217112,165.936912 540.973811,165.363294 L540.973811,165.363294 Z M540.745605,168.671059 C532.956505,170.977176 525.49369,172.004059 518.026991,173.000853 C515.592473,173.327941 513.112313,173.572529 510.781701,174.276206 C508.049058,175.101206 505.270774,176.078588 502.840139,177.536412 C498.411005,180.198735 497.381651,185.203088 499.92299,189.712441 C501.278629,192.118529 503.381036,193.618088 505.866051,194.647882 C513.069585,197.635353 520.297396,197.359706 527.377602,194.384853 C531.676611,192.577618 535.234679,189.775529 537.315721,185.366147 C539.75898,180.19 540.077497,174.641147 540.745605,168.671059 L540.745605,168.671059 Z M535.214286,140.988912 C534.93267,141.086941 534.225718,141.184971 533.689677,141.540206 C531.325077,143.110618 530.059748,145.349765 530.289896,148.192618 C530.523929,151.098559 531.855291,153.343529 534.791862,154.347118 C537.437107,155.252676 540.038653,153.233853 539.693917,150.404588 C539.405503,148.061588 538.945207,145.730235 538.444126,143.421206 C538.092592,141.835265 537.009828,141.017059 535.214286,140.988912 L535.214286,140.988912 Z" id="Shape" sketch:type="MSShapeGroup"></path>
            <path d="M360.926247,137.992706 C362.075044,138.194588 362.773257,137.836441 362.85677,136.782382 C363.164605,132.922353 363.959927,129.080765 363.390869,125.067382 C360.91168,124.845118 358.483959,124.702441 356.078573,124.394765 C352.318519,123.910441 348.800265,122.680706 345.854954,120.249382 C344.577973,119.194353 343.358286,117.894735 342.57656,116.455353 C340.324605,112.272118 342.537716,107.607471 347.202825,106.623294 C352.492344,105.506147 356.874866,107.395882 360.475662,111.205441 C363.014087,113.894941 364.753306,117.083324 365.728279,120.666735 C365.88074,121.228706 366.074957,121.778059 366.347833,122.650618 C368.995991,121.947912 371.545099,121.267529 374.093235,120.589088 C371.980146,122.572971 369.322277,123.387294 366.818811,124.333618 C366.591577,128.737176 366.372111,133.024265 366.140991,137.553029 C366.608085,137.779176 367.265512,138.091706 367.891864,138.393559 C368.20941,138.196529 368.443442,138.0985 368.622122,137.931559 C368.996963,137.588941 369.331017,137.202647 369.695175,136.848382 C373.721308,132.942735 379.240974,133.522176 382.304759,138.237294 C385.718134,143.491088 384.540204,150.019265 379.005971,154.196676 C376.758872,155.893265 374.092264,155.834059 371.518879,154.570353 C367.228611,152.463206 365.043662,147.407412 366.323556,142.489441 C366.473104,141.915824 366.819782,141.366471 366.83532,140.799647 C366.84406,140.372588 366.465335,139.933882 366.259464,139.501 C366.039998,139.504882 365.81859,139.507794 365.599124,139.511676 C365.25633,140.501676 364.889259,141.481971 364.57851,142.482647 C363.390869,146.308706 361.991531,150.061 359.049133,152.906765 C357.938207,153.980235 356.483517,154.8955 355.020087,155.368176 C352.308808,156.241706 349.778151,155.037206 348.314721,152.595206 C344.908143,146.917265 347.303818,138.246029 353.14977,135.080941 C353.37215,134.961559 353.596471,134.837324 353.830503,134.737353 C357.463345,133.184412 359.575463,134.116176 360.926247,137.992706 L360.926247,137.992706 Z M368.612412,143.964735 C369.14651,145.898147 369.511639,147.900471 370.253551,149.7475 C371.192594,152.068176 373.121175,153.326059 375.642121,153.248412 C378.009634,153.175618 379.467238,151.627529 380.425702,149.6155 C381.494871,147.364706 381.968762,144.991618 381.760949,142.478765 C381.501668,139.3525 379.875095,137.326882 377.001645,136.216529 C374.488468,135.249824 372.158827,135.960294 370.550704,138.153824 C369.296058,139.866912 368.827022,141.789647 368.612412,143.964735 L368.612412,143.964735 Z M362.913094,122.881618 C362.091553,117.462824 359.295789,113.076735 355.114282,110.369765 C352.745798,108.836235 350.204459,108.545059 347.567954,109.370059 C344.119619,110.449353 343.064046,113.870676 345.442241,116.581529 C346.591039,117.895706 348.022423,119.046824 349.522755,119.951412 C353.561512,122.384676 358.058622,122.979647 362.913094,122.881618 L362.913094,122.881618 Z M362.075044,140.006676 C360.616469,140.058118 360.749509,140.947176 360.547522,141.653765 C360.294068,142.532147 360.061007,143.459059 359.583231,144.216118 C359.022913,145.103235 358.078044,145.220676 357.103071,144.781 C356.11159,144.332588 355.628959,143.537676 355.967869,142.533118 C356.251427,141.679971 356.750566,140.861765 357.321566,140.165853 C357.666303,139.745588 358.337325,139.584471 358.687888,139.399088 C356.862241,136.096176 355.068641,135.654559 352.688503,137.5375 C351.906777,138.155765 351.211478,138.939029 350.631738,139.757235 C348.039903,143.409559 349.367381,149.392265 351.465903,152.213765 C352.252485,153.269765 353.466345,153.721088 354.626796,153.328 C355.761998,152.938794 357.053546,152.293353 357.728452,151.366441 C360.139665,148.050912 361.518611,144.276294 362.075044,140.006676 L362.075044,140.006676 Z M357.31574,142.714618 C357.518697,142.8505 357.720684,142.986382 357.925583,143.123235 C358.596605,142.747618 359.111282,142.299206 358.424723,140.965618 C357.960543,141.698412 357.638141,142.207971 357.31574,142.714618 L357.31574,142.714618 Z" id="Shape" sketch:type="MSShapeGroup"></path>
            <path d="M464.80649,85.1121471 C464.097595,85.1820294 463.520769,85.2257059 462.948798,85.2946176 C460.534672,85.5848235 459.344117,86.7708824 459.013947,89.1963824 C458.35652,94.0454412 462.173869,98.7780294 467.102143,98.9915588 C474.111459,99.2972941 477.340328,96.3399118 478.660037,90.7328235 C479.343684,87.8346471 478.533796,84.8432941 477.474338,82.0441176 C474.867937,75.1519706 472.195502,68.2850588 469.596869,61.3938824 C468.495655,58.4646471 467.512913,55.4936765 466.387422,52.2917059 C463.666432,52.0364412 460.925049,52.2247353 458.422554,53.6359706 C456.06281,54.9676176 455.305361,58.2055 456.65226,60.5436471 C458.000131,62.8847059 460.921165,63.0691176 462.505981,60.9115 C462.79051,60.5281176 463.078923,60.1457059 463.84317,59.8147353 C463.884927,60.2864412 464.096624,60.8260882 463.939308,61.2211176 C463.268286,62.9206176 462.016553,64.0814412 460.137497,64.1173529 C458.074905,64.1590882 456.335685,63.3457353 455.266517,61.4530882 C452.905801,57.2582059 454.722707,52.2519118 459.26643,50.6145294 C460.446303,50.1894118 461.739793,50.0515882 462.987641,49.8477647 C463.88784,49.7002353 464.810374,49.6555882 465.845554,49.5546471 C465.355155,46.9379412 464.668595,44.5532059 464.507395,42.1325588 C464.286957,38.8568235 464.03059,35.4801471 464.575371,32.2810882 C465.407594,27.4155294 468.195588,23.7185588 473.154937,22.1869706 C476.376037,21.1950294 479.245604,22.8479412 480.067145,25.9742059 C480.943066,29.3013824 478.325012,32.2364412 474.597974,31.9743824 C474.216337,30.6077941 475.028167,30.0312647 476.13715,29.5877059 C476.80623,29.3217647 477.663701,29.1004706 477.999697,28.5773235 C478.362884,28.0202059 478.375509,27.1049412 478.255094,26.3905882 C477.964738,24.6406176 476.640173,23.6098529 474.79025,23.7418529 C472.177051,23.9301471 470.194088,25.3588529 468.618983,27.3437059 C467.263344,29.0548529 466.744782,31.0930882 466.529201,33.2439118 C466.142707,37.1155882 466.851602,40.8591471 467.939221,44.5192353 C469.62406,50.1932941 468.325714,49.1770882 473.855092,49.1421471 C477.933663,49.1149706 482.042338,48.7558529 485.735388,46.8981471 C487.808662,45.8508824 489.774145,44.3911176 491.424995,42.7537353 C494.259602,39.9380588 494.628616,36.343 492.898136,32.7518235 C492.699063,32.3402941 492.630116,31.8666471 492.471828,31.3299118 C493.655585,30.9542941 493.973131,31.7026176 494.322723,32.3402941 C496.337731,36.0324118 495.582224,41.0348235 492.356269,44.6046471 C489.298311,47.9871471 485.463483,50.0797353 480.945009,50.7465294 C477.51998,51.2551176 474.061934,51.5424118 470.331012,51.9597647 C470.975815,53.9077353 471.539046,55.8314412 472.250854,57.7027353 C474.345491,63.2447941 476.552776,68.7480294 478.615367,74.3056176 C480.024417,78.1112941 481.382969,81.9344412 481.805393,86.0342059 C482.675488,94.5181176 476.910136,99.5622647 469.794,100.526059 C466.184464,101.019118 462.913838,100.369794 459.996689,98.0520294 C456.612446,95.3615588 455.479185,90.5008529 457.505847,86.8679412 C458.769233,84.6113235 461.471772,83.2641471 463.671287,83.8290294 C463.981065,83.9105588 464.275304,84.1124412 464.538469,84.3085 C464.641405,84.3851765 464.645289,84.6016176 464.80649,85.1121471 L464.80649,85.1121471 Z" id="Shape" sketch:type="MSShapeGroup"></path>
            <path d="M68.3780867,151.223765 C67.1156718,150.584147 66.7971548,149.257353 66.5572959,148.088765 C65.7386684,144.116147 65.0171497,140.118294 64.4150748,136.108794 C64.0149864,133.4455 63.8800051,130.745324 63.6090714,127.883059 C59.1605153,127.491912 54.7449762,127.107559 52.4425255,122.675853 C52.5386633,122.501147 52.6357721,122.327412 52.7309388,122.152706 C54.3011888,123.151441 55.7626769,124.445235 57.4669371,125.071265 C59.2391735,125.720588 61.2502976,125.7235 63.3245425,126.037 C63.4634082,125.182882 63.6119847,124.630618 63.637233,124.0735 C63.7411395,121.620824 63.7537636,119.162324 63.900398,116.711588 C64.2674694,110.631824 66.459216,105.190706 69.9133776,100.236824 C70.5300187,99.3487353 71.3369932,98.5412059 72.1954354,97.8782941 C75.3456463,95.4421176 78.5803418,96.5291765 79.6174643,100.348441 C80.3584048,103.075794 80.5021259,105.871088 80.1544762,108.664441 C79.724284,112.125559 78.9377024,115.476029 77.1839167,118.567353 C74.9193384,122.560353 71.6992092,125.401265 67.1593707,127.161912 C67.3331956,128.668265 67.5070204,130.190147 67.6992959,131.870235 C69.1860323,130.591 70.3328878,129.364176 71.7050357,128.481912 C73.7598588,127.167735 76.0525986,126.623235 78.493915,127.403588 C80.1690425,127.937412 81.5178844,128.914794 82.425852,130.434735 C83.885398,132.876735 84.8467755,135.519647 84.7506378,138.369294 C84.6360493,141.657647 84.2573248,144.939206 83.9601718,148.218824 C83.709631,150.931618 83.545517,153.630824 84.5748707,156.239765 C85.8207772,159.389324 88.5291429,161.049029 91.5132976,160.508412 C94.2333163,160.015353 95.3685187,158.242088 94.6965255,155.538029 C94.603301,155.156588 94.4955102,154.783882 94.2983793,154.058853 C96.1521871,154.850853 96.3065901,156.173765 96.2162789,157.476294 C96.0958639,159.181618 95.1898384,160.474441 93.6982466,161.365441 C90.4217942,163.327 86.0256769,162.489382 83.3610102,159.359235 C81.6557789,157.354 80.6642976,154.982853 80.5982636,152.398176 C80.5215476,149.283559 80.7866548,146.157294 80.9255204,143.036853 C81.0245714,140.755971 81.3226956,138.470235 81.2226735,136.201 C81.1605238,134.720853 80.7594643,133.165 80.1311701,131.817824 C78.7891259,128.937118 75.8010867,128.018941 73.1208827,129.721353 C70.1279881,131.618853 67.8964269,134.124912 68.5227789,138.068412 C69.0374558,141.324735 69.6424439,144.568441 70.2017908,147.820882 C70.5290476,149.728088 70.3998929,149.966853 68.3780867,151.223765 L68.3780867,151.223765 Z M67.0321582,124.805324 C70.6533469,123.536765 73.1985697,121.533471 74.9018588,118.572206 C77.8811582,113.391206 78.6609422,107.758882 78.0695493,101.886824 C78.0258503,101.474324 77.890869,101.057941 77.7316105,100.669706 C76.7362449,98.2005294 74.8076633,97.7132941 73.0383401,99.6661176 C71.9196463,100.899735 70.9553554,102.365324 70.2765646,103.884294 C67.3438776,110.449353 66.7204388,117.398765 67.0321582,124.805324 L67.0321582,124.805324 Z" id="Shape" sketch:type="MSShapeGroup"></path>
            <path d="M388.607122,74.3192059 C386.487236,68.0414412 386.864019,61.7423235 386.407607,55.3005294 C384.831531,55.2403529 383.335083,55.2403529 381.847376,55.1122353 C380.633515,55.0093529 379.482776,54.6997353 379.655629,52.7711765 L386.450335,52.7711765 C387.683617,48.7577941 388.691607,45.0161765 389.988981,41.3793824 C391.542723,37.0369706 393.947138,33.1555882 397.111915,29.7721176 C398.465612,28.3210882 400.082474,27.2709118 402.000374,26.7157353 C405.730325,25.6393529 408.944628,27.2243235 410.461468,30.8135588 C411.834587,34.0592059 411.305344,37.3417353 410.493514,40.534 C408.552308,48.1812647 402.776274,51.6802353 395.720345,53.6223824 C393.854884,54.1358235 391.926303,54.4202059 389.79185,54.8569706 L389.79185,61.2327647 C390.434711,60.4126176 390.829944,59.839 391.295095,59.3275 C392.822617,57.6483824 394.485121,56.2313235 397.014806,56.8680294 C399.804743,57.5717059 401.274,59.9098529 400.889449,63.1108529 C400.708827,64.6201176 400.413616,66.1128824 400.208716,67.6192353 C400.035862,68.9149706 400.397107,69.9641765 401.722643,70.498 C402.957867,70.9968824 403.858066,70.3766765 404.665041,69.5778824 C407.735622,66.5535294 409.215561,62.6867059 410.209956,58.6306176 C410.586738,57.0970882 411.272327,56.0304118 412.723133,55.3626471 C413.986519,56.2099706 413.423287,57.3591471 413.216446,58.3452647 C412.678463,60.9309118 412.252155,63.5340294 412.746439,66.1449118 C412.974645,67.3474706 413.484466,68.5946765 414.190447,69.5885588 C415.65582,71.6365 418.136951,71.3987059 419.3411,69.178 C419.738276,68.4481176 419.861604,67.5784706 420.182063,66.7971471 C420.387934,66.3050588 420.724901,65.8634412 421.047303,65.3237941 C422.508791,67.2348824 421.636753,70.5533235 419.507156,71.9451471 C416.076301,74.1852647 412.57844,72.6847353 409.726354,67.5872059 C409.244694,68.0841471 408.802849,68.5267353 408.378483,68.9838824 C407.460804,69.9748529 406.663541,71.1036471 405.624476,71.9422353 C402.508253,74.4628529 398.334515,73.0749118 397.580951,69.1411176 C397.209024,67.1989706 397.544049,65.119 397.614939,63.1001765 C397.6431,62.3450588 397.89267,61.5996471 397.945109,60.8406471 C398.064553,58.9965294 397.002182,58.1783235 395.226061,58.7354412 C393.678146,59.2217059 392.690549,60.3563235 391.913679,61.7170882 C390.375474,64.4095 389.937514,67.2795294 390.626015,70.2864118 C391.014451,71.9995 390.575519,73.2408824 388.607122,74.3192059 L388.607122,74.3192059 Z M390.222043,52.4877647 C390.743517,52.4877647 391.149432,52.5295 391.547578,52.4809706 C394.686136,52.0937059 397.639216,51.1221471 400.501985,49.7798235 C404.410616,47.9425 406.932532,44.8579706 408.435777,40.9426176 C409.570009,37.9997941 409.432114,34.9337059 408.424124,31.9685588 C407.389915,28.9218824 405.106886,27.8319118 402.209158,29.1917059 C400.728248,29.8817941 399.240541,30.9552647 398.262655,32.2422647 C394.265655,37.4989706 391.726259,43.4807059 390.248262,49.9050294 C390.067639,50.6844118 390.222043,51.5414412 390.222043,52.4877647 L390.222043,52.4877647 Z" id="Shape" sketch:type="MSShapeGroup"></path>
            <path d="M250.171668,175.537 C255.66026,167.668441 257.39074,159.465029 256.768272,150.2425 C256.067146,150.747206 255.640838,150.989853 255.292218,151.312088 C253.446179,153.024206 251.355425,153.114471 249.145228,152.227353 C246.350435,151.102441 244.320861,149.084588 242.911811,146.488265 C240.650146,142.329294 240.480206,137.927676 241.68824,133.423176 C241.796031,133.022324 241.928099,132.482676 242.225252,132.307 C242.819558,131.958559 243.534279,131.817824 244.201417,131.587794 C244.36456,132.177912 244.803491,132.856353 244.645204,133.343588 C243.759571,136.074824 243.823663,138.844882 244.036332,141.644059 C244.289786,144.981912 245.993075,147.568529 248.414969,149.683441 C249.842469,150.926765 251.539932,151.921618 253.490849,150.656941 C255.473811,149.371882 257.251874,147.712176 256.858583,145.154676 C256.361386,141.905147 255.462158,138.714824 254.660039,135.516735 C254.132738,133.416382 254.251211,132.959235 256.175908,131.540235 C258.828922,133.829853 260.837133,146.001029 260.20981,154.988676 C259.63007,163.279441 256.396345,170.508382 251.664231,177.106441 C252.704267,178.936971 253.711286,180.597647 254.582352,182.327235 C254.768801,182.703824 254.465821,183.325 254.390077,183.8365 C254.001641,183.600647 253.472398,183.452147 253.245163,183.109529 C252.274075,181.637147 251.391355,180.1075 250.361031,178.408971 C249.406451,179.209706 248.681048,179.904647 247.873102,180.480206 C240.101481,186.034882 231.715162,187.583941 222.635485,184.195618 C218.30443,182.581529 213.778187,177.348118 214.994961,170.985912 C216.10006,165.205088 220.816636,161.133471 226.78009,160.966529 C230.247847,160.869471 233.529155,161.657588 236.547298,163.321176 C241.567825,166.085412 246.037745,169.527118 249.371491,174.280088 C249.56668,174.557676 249.736621,174.849824 250.171668,175.537 L250.171668,175.537 Z M249.083078,176.825941 C244.009141,169.927971 237.850498,164.915853 229.480687,163.058147 C227.278259,162.568971 225.087483,162.894118 223.016151,163.789971 C219.31242,165.397265 217.101252,169.206824 217.547952,173.215353 C217.925706,176.612412 220.013546,178.934059 222.694721,180.699559 C227.385078,183.789912 232.548355,184.647912 238.024323,183.398765 C242.347609,182.408765 245.885284,180.075471 249.083078,176.825941 L249.083078,176.825941 Z" id="Shape" sketch:type="MSShapeGroup"></path>
            <path d="M403.184131,157.078353 C402.681107,157.577235 402.224696,158.135324 401.663406,158.557529 C400.237849,159.639735 399.422134,161.065529 399.075456,162.791235 C397.86548,168.803059 399.930014,173.836529 404.945685,177.725676 C411.477226,182.794088 418.955578,183.772441 426.861209,182.700912 C428.859709,182.429147 430.846556,181.913765 432.76834,181.292588 C437.41694,179.794 440.880813,176.761882 443.211425,172.514588 C446.496617,166.517324 448.397037,160.038647 449.533211,153.320235 C449.586621,152.998 449.536124,152.657324 449.536124,152.210853 C449.245769,152.292382 449.007852,152.303059 448.840825,152.414676 C445.272075,154.879971 441.08377,154.055941 438.735679,150.424971 C437.445102,148.430412 436.927512,146.159235 436.992575,143.882235 C437.101337,139.995029 438.489022,136.438794 440.634156,133.206735 C440.903148,132.802971 441.512991,132.619529 441.967461,132.331265 C442.129633,132.434147 442.28792,132.534118 442.450092,132.634088 C442.220915,133.465882 442.088847,134.342324 441.743139,135.120735 C440.719612,137.399676 440.197167,139.775676 440.120451,142.258441 C440.034995,144.870294 440.719612,147.310353 442.078165,149.511647 C443.829037,152.349647 446.439323,152.588412 448.461129,149.965882 C449.460379,148.672088 450.250845,147.052176 450.608206,145.463324 C451.598716,141.055882 451.481214,136.548471 451.266604,132.056588 C451.21902,130.997676 451.336522,129.932941 451.37051,128.943912 C452.541643,128.618765 452.952413,129.174912 453.126238,129.847529 C453.460293,131.155882 453.789491,132.482676 453.939039,133.819176 C455.214078,145.138176 453.660337,156.133971 449.805116,166.790059 C445.77607,177.943088 436.40798,184.587735 424.453881,185.088559 C420.974471,185.230265 417.528078,185.116706 414.089454,184.393618 C408.703798,183.257059 404.085301,180.773324 400.215514,176.895824 C397.469276,174.146147 396.115578,170.700559 395.681502,166.904588 C395.200813,162.725235 397.603286,158.391559 401.165238,156.854147 C401.691568,156.628 402.322776,156.629941 402.902515,156.524147 C402.997682,156.708559 403.088964,156.894912 403.184131,157.078353 L403.184131,157.078353 Z" id="Shape" sketch:type="MSShapeGroup"></path>
            <path d="M322.902308,138.548853 C325.868983,137.243412 327.332413,134.740265 328.881299,132.320588 C329.084257,132.444824 329.287214,132.565176 329.492114,132.689412 C329.248371,133.425118 329.159031,134.263706 328.73952,134.877118 C327.690745,136.406765 326.691495,138.068412 325.298954,139.233118 C324.00158,140.324059 323.793767,141.358706 323.853974,142.9165 C323.92098,144.745088 323.70734,146.649382 323.22568,148.411 C322.404139,151.3975 320.402726,153.606559 317.72058,155.116794 C313.971207,157.227824 310.215037,156.530941 307.150282,153.237735 C306.588022,152.635971 306.062663,151.997324 305.404265,151.242206 C304.658469,152.048765 304.038915,152.718471 303.419361,153.390118 C302.90177,153.950147 302.423024,154.547059 301.863677,155.063412 C298.461954,158.171235 294.970891,158.161529 291.806114,154.794559 C288.32282,151.085941 287.222577,146.404794 286.964267,141.475176 C286.915713,140.562824 286.957469,139.641735 286.957469,138.680853 C284.318051,138.000471 281.896156,137.247294 280.080221,135.294471 C278.946961,134.071529 278.963469,133.888088 280.638597,132.550618 C282.479781,134.046294 284.247162,135.8545 287.106046,135.911765 C287.293466,135.001353 287.452724,134.099676 287.664422,133.207706 C288.716111,128.851706 289.756146,124.492794 290.862216,120.150382 C291.04381,119.436029 291.393401,118.662471 291.908078,118.163588 C292.316906,117.768559 293.173406,117.482235 293.694881,117.626853 C294.556236,117.871441 294.222182,118.670235 294.037675,119.343824 C293.182146,122.44 292.272236,125.528412 291.557515,128.658559 C291.049636,130.872471 290.823372,133.149471 290.456301,135.479853 C291.843015,136.026294 292.939374,135.552647 294.020196,135.168294 C298.419226,133.603706 302.069548,130.889941 305.404265,127.697676 C305.989832,127.137647 306.602588,126.603824 307.40665,125.875882 C307.813536,127.448235 306.929845,128.0995 306.286985,128.796382 C302.066634,133.384353 297.088835,136.765882 290.825315,138.303294 C290.683536,138.935147 290.460185,139.569912 290.404833,140.219235 C290.025138,144.723735 290.77676,149.014706 293.138447,152.910647 C295.147629,156.227147 298.188107,156.499882 300.907155,153.704588 C303.195039,151.355765 304.918721,148.816706 305.063413,145.293471 C305.145956,143.324147 305.921855,141.3325 306.641432,139.448588 C307.45132,137.326882 309.085662,135.7885 311.058913,134.695618 C314.560658,132.750559 318.991735,133.669706 321.622413,136.828 C322.049692,137.340471 322.42259,137.899529 322.902308,138.548853 L322.902308,138.548853 Z M311.20749,138.162559 C307.776634,141.008324 307.092017,147.744206 309.85185,151.525618 C312.226162,154.775147 316.386304,154.908118 318.836361,151.711 C321.095112,148.767206 321.773903,145.3915 321.265053,141.752765 C315.091844,141.432471 315.091844,141.432471 311.20749,138.162559 L311.20749,138.162559 Z M320.652296,139.296206 C320.026915,136.810529 318.480942,135.580794 316.216364,135.184794 C314.766529,134.931471 313.869243,135.667176 313.249689,136.836735 C315.227796,139.777618 317.8274,140.650176 320.652296,139.296206 L320.652296,139.296206 Z" id="Shape" sketch:type="MSShapeGroup"></path>
            <path d="M501.50198,53.6942059 C502.097257,55.0064412 502.695447,56.3303235 503.416966,57.925 C504.399707,55.2452059 505.24067,52.546 508.580243,52.7042059 C511.37018,52.8391176 513.62699,54.0407059 515.006906,56.968 C515.585675,56.2740294 516.101323,55.7654412 516.49073,55.1733824 C517.853167,53.1060294 519.749702,52.2509412 522.164799,52.7187647 C524.472105,53.1642647 526.291925,55.1714412 526.698811,57.6580882 C527.252332,61.0629118 526.970716,64.4211471 525.934565,67.7046471 C525.52865,68.9955294 525.036308,70.2611765 524.527457,71.5161471 C524.338095,71.9665 524.055509,72.6051471 523.685524,72.709 C523.021299,72.8953529 522.192961,72.9060294 521.569522,72.6488235 C521.33549,72.5527353 521.28208,71.4113235 521.509315,70.9105 C523.156281,67.2814706 523.904019,63.5068529 523.451491,59.5468529 C523.327192,58.4898824 522.93293,57.4086471 522.426022,56.4691176 C521.36268,54.5046471 519.680755,54.2687941 518.103707,55.8489118 C516.545111,57.4076765 515.850782,59.3585588 515.731338,61.5724706 C515.562369,64.6967941 515.27784,67.8182059 515.016617,70.9357353 C514.974861,71.4249118 514.772874,71.9005 514.649546,72.3498824 C512.015954,72.6633824 511.715888,72.3819118 511.901366,69.97 C512.182981,66.2672059 512.929748,62.5682941 512.100439,58.8422059 C511.957689,58.189 511.850869,57.5066765 511.570224,56.9078235 C510.994369,55.6654706 510.026194,54.8860882 508.583156,54.9297647 C507.1945,54.9724706 506.028223,55.5849118 505.608713,56.9165588 C505.110544,58.5141471 504.757068,60.1845294 504.584214,61.8500588 C504.368633,63.9504118 504.430782,66.0789118 504.315223,68.1938235 C504.181213,70.7270588 503.37618,72.8468235 500.658104,73.6795882 C497.967218,74.5055588 495.589993,73.6970588 493.719677,71.2667059 C493.163243,70.5407059 492.675757,69.7535588 491.993082,68.7596765 C491.445388,69.5147941 491.033646,70.1107353 490.591801,70.6804706 C488.791403,72.9972647 485.966507,73.4553824 483.643663,71.6374706 C482.66869,70.8794412 481.81219,69.8477059 481.207202,68.7713235 C479.725321,66.1400588 479.632097,63.2535294 480.269131,60.3747647 C481.202347,56.1362059 485.252757,53.5243529 489.833381,54.8249412 C489.972247,54.7405 490.136361,54.6745 490.246094,54.5609412 C490.942364,53.8475588 491.557063,52.6789706 492.695179,53.1380588 C493.931374,53.6379118 493.566245,54.9462647 493.582753,56.0352647 C493.617713,58.9130588 493.605088,61.7995882 493.871167,64.6579706 C494.089662,66.9650588 495.103478,69.0469706 496.638769,70.8260588 C497.716677,72.0684118 498.811094,72.4488824 499.969602,71.9470882 C501.219393,71.4045294 501.775827,70.3145588 501.648614,69.0712353 C501.333981,66.0478529 500.899905,63.0341765 500.443493,60.0272941 C500.255102,58.7781471 499.810344,57.5658824 499.621952,56.3099412 C499.437446,55.0763235 499.609328,53.9261765 501.50198,53.6942059 L501.50198,53.6942059 Z M482.023888,61.6559412 C482.012235,65.2655588 483.362048,67.4445294 485.575158,69.0809412 C487.754281,70.6901765 489.914952,69.9127353 490.660748,67.2979706 C490.860793,66.5933235 490.869532,65.8052059 490.819036,65.0656176 C490.691823,63.1273529 490.451964,61.1968529 490.32281,59.2576176 C490.157724,56.8282353 489.532344,56.1827941 487.094912,56.1070882 C485.751896,56.0634118 484.62252,56.5263824 483.686391,57.4989118 C482.358913,58.8800588 482.005437,60.5776176 482.023888,61.6559412 L482.023888,61.6559412 Z" id="Shape" sketch:type="MSShapeGroup"></path>
            <path d="M410.027391,135.983588 C410.751823,135.341059 411.050918,133.977382 412.430835,134.693676 C413.424259,135.211971 413.552442,136.080647 413.444651,137.068706 C413.087291,140.290088 413.204793,143.492059 413.883583,146.663941 C414.078772,147.567559 414.285614,148.491559 414.645888,149.336941 C415.393626,151.083029 416.397731,151.587735 417.772793,151.066529 C419.061427,150.578324 419.648935,149.317529 419.340129,147.746147 C418.789522,144.928529 418.162199,142.119647 417.736862,139.281647 C417.473697,137.532647 417.526136,135.739 417.429998,133.964765 C417.372704,132.858294 417.838827,132.164324 418.98374,132.073088 C420.281114,131.973118 420.50932,132.871882 420.557874,133.879353 C420.585065,134.457824 420.56273,135.036294 420.56273,135.992324 C421.234723,135.4255 421.667828,135.094529 422.063061,134.723765 C424.860767,132.068235 428.125566,132.134235 430.723228,135.058618 C433.66077,138.364441 434.966884,142.337059 434.93581,146.721206 C434.923185,148.321706 434.648367,149.920265 434.470658,151.517853 C434.425988,151.938118 434.341503,152.358382 434.206522,152.756324 C433.842364,153.843382 432.975182,154.120971 431.975932,153.924912 C430.945607,153.725941 431.105837,152.886382 431.14468,152.104088 C431.27869,149.409735 431.574872,146.699853 431.432122,144.016176 C431.312679,141.851765 430.857238,139.6495 430.181361,137.584088 C429.230665,134.693676 426.486369,133.900706 424.111087,135.781706 C421.930993,137.5045 420.698682,139.824206 421.435738,142.683559 C422.067917,145.134294 422.95452,147.516118 423.744015,149.924147 C423.968337,150.626853 424.249952,151.309176 424.499522,151.976941 C422.368954,153.033912 422.317486,153.025176 420.478245,151.381971 C419.771293,151.812912 419.087646,152.310824 418.338937,152.671882 C417.230925,153.199882 415.979192,153.500765 414.939156,152.736912 C413.80007,151.901235 412.7746,152.132235 411.628716,152.521441 C410.046813,153.064971 408.471707,152.999941 406.915053,152.365176 C402.053784,150.385176 398.919111,143.877382 400.416529,138.858471 C401.681857,134.617 405.002009,133.250412 408.923264,135.357559 C409.290335,135.5575 409.647696,135.770059 410.027391,135.983588 L410.027391,135.983588 Z M411.492764,150.240559 C410.946041,146.402853 410.443988,142.913588 409.962328,139.422382 C409.759371,137.960676 408.15319,136.213618 406.71598,135.948647 C405.469102,135.720559 404.411587,136.306794 403.866806,137.524882 C401.897439,141.941059 404.110549,148.322676 408.379454,150.468647 C409.618563,151.093706 410.80232,151.126706 411.492764,150.240559 L411.492764,150.240559 Z" id="Shape" sketch:type="MSShapeGroup"></path>
            <path d="M234.36332,82.7390588 C234.280777,78.715 232.593997,75.9274706 230.111895,73.6126176 C227.824981,71.4773235 225.331226,69.5613824 223.026833,67.4455 C221.535241,66.0769706 220.051418,64.6414706 218.854066,63.0235 C214.373464,56.9447059 218.119923,47.8920294 225.544866,46.6758824 C228.617389,46.1721471 231.895784,47.7522647 233.018362,50.2816176 C233.700066,51.8093235 233.541779,53.1797941 232.58817,54.0193529 C231.434517,55.0404118 230.121605,54.7327353 229.556432,53.3137353 C229.496224,53.1565 229.470005,52.9876176 229.421451,52.8245588 C228.529991,49.6400588 227.250097,48.9266765 224.068811,49.5895882 C220.595228,50.3097647 217.946099,54.8695882 219.41924,58.0890294 C220.332063,60.0826176 221.46241,61.7481471 223.285143,62.9749706 C226.864575,65.3868824 230.424585,67.8114118 233.481571,70.9202059 C236.500685,73.9872647 237.87866,77.7395588 238.193293,81.8703824 C238.480735,85.6945 235.267403,91.0987353 230.799425,92.3449706 C223.922177,94.258 217.390636,92.0712647 213.416942,86.2011471 C212.428374,84.7404118 212.0681,83.1962059 213.00423,81.6917941 C213.496571,80.8997941 214.408423,80.2533824 215.275605,79.8573824 C215.695116,79.6681176 216.593372,80.0602353 216.99249,80.4707941 C217.230406,80.7144118 217.086685,81.5986176 216.826434,82.0169412 C215.354264,84.3851765 215.341639,84.6763529 216.989577,86.8252353 C219.049255,89.5118235 221.664396,91.2821765 225.125355,91.3578824 C230.87517,91.486 234.655617,87.5755 234.36332,82.7390588 L234.36332,82.7390588 Z" id="Shape" sketch:type="MSShapeGroup"></path>
            <path d="M202.471804,149.658206 C204.768429,151.800294 204.96556,154.407294 203.65459,156.997794 C201.36185,161.520735 195.45569,163.866647 190.614815,159.578588 C189.315498,158.429412 188.377427,156.849294 187.382061,155.391471 C186.825628,154.578118 186.491573,153.615294 185.964272,152.527265 C185.372879,153.086324 184.917439,153.539588 184.434808,153.966647 C182.38484,155.768059 180.584442,155.7535 178.570405,153.964706 C176.450519,152.083706 175.440587,149.708676 175.790179,146.935706 C176.052372,144.850882 176.672898,142.810706 177.16524,140.760824 C177.304105,140.185265 177.609027,139.654353 177.746922,139.081706 C178.257714,136.925059 176.773891,135.367265 174.610306,135.812765 C173.617854,136.012706 172.663274,136.407735 171.668879,136.610588 C169.747095,136.999794 167.729173,136.187412 166.801784,134.644176 C166.581347,134.275353 166.607566,133.757059 166.442481,132.901 C167.201872,133.292147 167.68159,133.410559 167.974859,133.712412 C169.345065,135.113941 170.905604,135.239147 172.646765,134.584971 C173.753806,134.170529 174.85502,133.703676 176.000905,133.443559 C179.167624,132.724353 181.229245,134.386 180.99327,137.607382 C180.884509,139.092382 180.280491,140.545353 179.881374,142.007059 C179.329796,144.0385 178.616046,146.038882 178.242177,148.100412 C177.952793,149.697029 178.320835,151.311118 179.310374,152.692265 C180.196007,153.930735 181.333151,154.291794 182.603335,153.463882 C184.268752,152.374882 185.597201,151.010235 185.503005,148.744882 C185.450566,147.486029 185.624391,146.211647 185.752575,144.948912 C185.933197,143.190206 187.037325,141.284941 184.236706,140.056176 C184.461027,139.952324 184.68632,139.8475 184.911612,139.746559 C185.506889,139.881471 186.103138,140.018324 186.611988,140.131882 C187.6394,138.497412 188.477449,136.8115 189.650524,135.408029 C190.541983,134.348147 191.765554,133.446471 193.014374,132.826265 C194.841963,131.916824 196.956993,132.534118 198.064034,133.972529 C199.330333,135.616706 199.354611,137.651059 198.069861,139.387441 C196.466594,141.550882 194.381667,142.844676 191.603383,142.810706 C191.100359,142.802941 190.597335,142.810706 190.035075,142.810706 C188.841607,144.801382 189.071755,146.948324 189.154298,149.018588 C189.268886,151.839118 189.880672,154.547059 191.623776,156.891029 C193.612565,159.565971 196.172354,160.314294 199.225456,159.077765 C202.090167,157.918882 203.494361,155.311882 202.968031,152.103118 C202.832078,151.282 202.637861,150.469618 202.471804,149.658206 L202.471804,149.658206 Z M189.750546,141.211176 C193.309585,141.8935 196.069418,140.565735 196.973502,138.113059 C197.315325,137.188088 197.350284,136.284471 196.585066,135.525471 C195.802369,134.752882 194.894401,134.338441 193.845626,134.9305 C193.205679,135.291559 192.43075,135.678824 192.094753,136.267971 C191.237282,137.769471 190.591509,139.398118 189.750546,141.211176 L189.750546,141.211176 Z" id="Shape" sketch:type="MSShapeGroup"></path>
            <path d="M135.987206,151.734294 C135.367651,151.970147 134.979216,152.139029 134.580099,152.268118 C130.394707,153.595882 127.124082,150.866588 127.690226,146.459147 C127.831034,145.382765 128.207816,144.328706 128.545755,143.287265 C129.093449,141.599412 129.832447,139.959118 130.248073,138.244088 C130.653988,136.563029 131.07544,134.717941 128.972063,133.532853 C128.245689,134.008441 127.570782,134.448118 126.80168,134.951853 C126.201548,133.6105 127.077469,133.104824 127.814526,132.611765 C128.729291,132.002235 129.787777,131.853735 130.653988,132.5875 C131.264803,133.107735 131.93194,133.858971 132.055269,134.594676 C132.329116,136.234 132.460213,137.942235 132.306781,139.592235 C132.131014,141.518853 131.573609,143.408588 131.222075,145.320647 C131.100689,145.981618 131.117197,146.663941 131.051163,147.334618 C130.86083,149.302971 133.282724,150.589971 135.056903,149.297147 C135.772595,148.772059 136.258139,147.919882 136.81166,147.19 C137.147656,146.7445 137.417619,146.251441 137.732252,145.751588 C138.887847,146.589206 138.374141,147.553 138.208085,148.400324 C137.671073,151.129618 138.912124,152.977618 141.065027,154.380118 C143.302415,155.836 145.655362,156.065059 148.028702,154.7635 C150.177721,153.584235 150.769114,151.422735 149.308597,149.409735 C147.824774,147.362765 146.024376,145.546794 144.450241,143.56 C143.084891,141.841088 141.808881,140.049382 140.548408,138.250882 C139.226757,136.367941 138.8995,134.210324 138.987869,131.963412 C139.100515,129.111824 141.05823,126.604794 143.814179,125.760382 C146.249668,125.014 148.681274,126.160265 149.64168,128.501324 C150.147617,129.741735 149.912614,131.279147 149.003675,132.010971 C148.725944,132.233235 148.167568,132.381735 147.89275,132.250706 C147.622787,132.117735 147.406235,131.575176 147.426628,131.224794 C147.459645,130.651176 147.792728,130.095029 147.841282,129.5185 C147.98209,127.8355 146.800276,126.796971 145.138743,127.064853 C142.738213,127.455029 141.095131,130.128029 141.875886,132.738912 C142.277917,134.086088 142.964476,135.435206 143.84234,136.534882 C145.843753,139.039971 148.064633,141.374235 150.147617,143.823029 C151.017713,144.848941 151.80041,145.957353 152.557859,147.072559 C154.447597,149.851353 153.586241,153.546382 150.432146,155.689441 C146.09041,158.638088 139.941478,157.450088 136.927219,153.122235 C136.641719,152.714588 136.367872,152.299176 135.987206,151.734294 L135.987206,151.734294 Z" id="Shape" sketch:type="MSShapeGroup"></path>
            <path d="M522.181308,156.090294 C520.714964,154.735353 521.155838,153.593941 521.708388,152.371 C523.065969,149.394206 523.727281,146.275706 523.336903,142.990265 C522.992167,140.090147 520.98784,138.808 518.312491,140.0455 C515.91973,141.150029 514.059124,142.933 514.020281,145.822441 C513.990177,148.0975 514.192163,150.375471 514.315491,152.650529 C514.410658,154.462618 514.255284,154.671294 511.885828,155.350706 C510.658372,152.155529 511.259476,148.752647 510.922509,144.939206 C509.529968,146.982294 508.488961,148.672088 507.276071,150.225029 C506.246718,151.547941 505.16881,152.914529 503.847158,153.914235 C500.954286,156.100971 497.306878,154.821735 496.078451,151.389735 C495.30158,149.220471 495.637577,147.022088 495.981342,144.859618 C496.293061,142.947559 496.882512,141.080147 497.347663,139.191382 C497.771058,137.482176 498.846053,136.641647 500.89602,136.668824 C500.822218,137.386088 500.787259,138.018912 500.683352,138.641059 C500.130803,141.887676 499.439388,145.115853 499.063577,148.382853 C498.941219,149.446618 499.437446,150.7045 499.9764,151.6945 C500.749386,153.094088 501.865167,153.343529 503.181963,152.433118 C504.129745,151.779912 504.925066,150.851059 505.646585,149.933853 C508.137427,146.759059 509.516372,143.005794 510.971063,139.308824 C511.549832,137.833529 512.404389,136.883324 514.302867,136.722206 C514.431051,137.712206 514.548553,138.654647 514.689361,139.778588 C515.777951,139.265147 516.783027,138.716765 517.843456,138.298441 C522.043413,136.629029 525.106226,138.249912 525.953015,142.667059 C526.797862,147.0415 525.538361,151.046147 523.486451,154.849882 C523.236881,155.316735 522.688216,155.6215 522.181308,156.090294 L522.181308,156.090294 Z" id="Shape" sketch:type="MSShapeGroup"></path>
            <path d="M273.248614,61.6734118 C272.421247,61.2143235 271.654087,60.7901765 270.716986,60.2728529 C271.850247,59.1896765 272.693151,60.2039412 273.758435,60.0331176 C274.184743,59.1081471 274.628531,58.0327353 275.155832,57.0029412 C276.766867,53.8407647 278.80324,51.0842941 282.290418,49.7788529 C285.037628,48.7480882 287.102162,49.1537941 288.512182,50.9736471 C289.778481,52.6090882 289.650298,55.6344118 288.23348,57.6522647 C286.322378,60.3737941 283.708207,61.9432353 280.410391,62.2994412 C278.986776,62.4537647 277.54568,62.4421176 275.974459,62.5100588 C275.170398,64.0319412 275.849189,65.5518824 276.322109,67.0320294 C277.783597,71.6015588 282.054444,74.2221471 286.785587,73.4980882 C287.620723,73.369 288.450032,73.1632353 289.255065,72.9021471 C293.446282,71.5423529 294.798037,67.8706176 292.503355,64.0542647 C291.993534,63.2020882 291.376893,62.4120294 290.458243,61.0832941 C291.506048,61.4132941 292.111036,61.4385294 292.479078,61.7452353 C297.712274,66.0866765 296.169214,72.5682647 291.903223,75.0384118 C284.886138,79.1022647 275.257796,76.0963529 273.562276,66.6389412 C273.279689,65.0762941 273.350578,63.4554118 273.248614,61.6734118 L273.248614,61.6734118 Z M275.956009,60.2039412 C279.948153,61.5520882 284.962854,59.6652647 286.863274,56.2740294 C287.882917,54.4561176 287.19927,52.7071176 285.188146,52.1286471 C283.131381,51.5375588 281.359145,52.1179706 279.906396,53.6476176 C278.151639,55.4956176 276.837757,57.6173235 275.956009,60.2039412 L275.956009,60.2039412 Z" id="Shape" sketch:type="MSShapeGroup"></path>
            <path d="M424.561672,73.7785882 C423.995527,74.2337941 423.565335,74.6249412 423.091444,74.953 C420.202456,76.9669706 420.550105,79.3691765 422.396145,81.9985 C424.227617,84.6113235 428.358628,85.6362647 431.382597,84.5501765 C433.466553,83.7989412 434.358983,82.081 434.572622,80.0398529 C434.883371,77.1358529 433.969577,74.4948824 432.254634,72.1887647 C431.201974,70.7736471 429.911398,69.5322647 428.69948,68.2355588 C427.30791,66.7554118 425.793983,65.3820294 424.503406,63.8203529 C421.342514,59.9913824 421.844566,54.8414412 425.536645,52.1111765 C428.293565,50.0748824 431.754524,50.2408529 434.146315,52.5547353 C435.321332,53.6932353 435.892332,55.0743824 435.366002,56.6904118 C435.214512,57.1562941 434.698864,57.5047353 434.015218,58.2889706 C433.885092,57.5086176 433.773417,57.2232647 433.804491,56.9515 C434.050177,54.6677059 432.623648,53.5097941 430.829077,52.7391471 C429.0481,51.9733529 427.324418,52.2548235 425.9076,53.6689706 C424.499522,55.0763235 423.610005,56.7622353 424.551961,58.6995294 C425.276393,60.1913235 426.256221,61.6190588 427.371031,62.8487941 C429.072378,64.7259118 431.048543,66.3545588 432.798444,68.1928529 C434.676529,70.1631471 436.34583,72.3285294 437.029476,75.0296765 C438.590986,81.2103824 435.324245,85.7265294 430.516386,86.4874706 C427.725478,86.9300588 425.132672,86.4389412 422.689413,85.0432353 C419.842182,83.4116765 418.491398,80.4135294 419.340129,77.2581471 C419.875199,75.2606765 421.192966,73.8727353 423.193408,73.2117647 C423.415787,73.1350882 423.696432,73.1564412 423.930464,73.2049706 C424.071272,73.2350588 424.174207,73.4126765 424.561672,73.7785882 L424.561672,73.7785882 Z" id="Shape" sketch:type="MSShapeGroup"></path>
            <path d="M87.5910714,133.261088 C88.5378827,134.287 89.4846939,135.310971 90.6597109,136.582441 C90.9772568,135.778794 91.1520527,135.185765 91.4385238,134.652912 C92.3455204,132.951471 93.0563571,131.072412 94.2828418,129.638853 C96.1784065,127.423971 99.0547704,126.945471 100.894983,128.0995 C102.989621,129.414647 104.084037,132.768029 103.258612,135.336206 C102.306946,138.303294 99.7141395,140.293971 96.4338027,140.563794 C95.6948044,140.623 94.9509507,140.647265 93.955585,140.700647 C94.3789796,145.165353 96.0812976,148.793412 99.204318,151.748853 C100.572582,153.042647 102.1506,152.844647 103.681036,152.033235 C105.316349,151.163588 106.207808,149.792147 106.096133,147.908235 C106.04952,147.095853 105.824228,146.291235 105.582427,144.951824 C106.300061,145.540971 106.782692,145.739941 106.911847,146.076735 C107.83341,148.424588 107.355634,150.592882 105.742656,152.458353 C103.991784,154.483 101.626213,154.702353 99.2082024,154.192794 C96.9659592,153.723029 95.251017,152.339941 93.8982908,150.510382 C92.0862398,148.062559 91.1102959,145.256588 90.8529575,142.277853 C90.6645663,140.080441 90.0139371,138.224676 88.6058588,136.527118 C87.9086173,135.687559 87.0501752,134.799471 87.0647415,133.582353 C87.2405085,133.473647 87.4162755,133.367853 87.5910714,133.261088 L87.5910714,133.261088 Z M93.9604405,138.281941 C98.5536888,139.450529 102.205952,136.467912 101.455301,132.436088 C101.140668,130.742412 100.298735,129.688353 99.0984694,129.481618 C97.6797092,129.237029 96.3347517,129.869853 95.5617653,131.373294 C94.4770595,133.490147 93.8856667,135.7555 93.9604405,138.281941 L93.9604405,138.281941 Z" id="Shape" sketch:type="MSShapeGroup"></path>
            <path d="M498.807209,132.756382 C498.930537,131.899353 498.949959,130.966618 499.21798,130.115412 C499.520959,129.153559 500.826102,128.587706 501.702995,128.906059 C502.797412,129.300118 502.588628,130.243529 502.461415,131.048147 C502.157464,132.945647 500.984389,133.524118 498.807209,132.756382 L498.807209,132.756382 Z" id="Shape" sketch:type="MSShapeGroup"></path>
            <path d="M132.863214,126.895 C132.863214,128.506176 132.19899,129.542765 131.258976,129.543735 C130.348095,129.545676 129.612981,128.555676 129.623663,127.3405 C129.634345,125.971971 130.435493,124.887824 131.407553,125.006235 C132.589367,125.155706 132.827284,126.045735 132.863214,126.895 L132.863214,126.895 Z" id="Shape" sketch:type="MSShapeGroup"></path>
            <path d="M412.432777,52.0364412 C412.184179,50.3553824 412.337611,48.9829706 413.667031,48.0385882 C414.019536,47.7881765 414.707066,47.6532647 415.039179,47.8337941 C415.380031,48.0182059 415.625716,48.6510294 415.644167,49.0975 C415.710201,50.8503824 414.676963,51.8248529 412.432777,52.0364412 L412.432777,52.0364412 Z" id="Shape" sketch:type="MSShapeGroup"></path>
            <path d="M531.396937,53.1137941 C531.669813,52.1373824 531.751384,51.5336765 532.004838,51.0153824 C532.418522,50.17 533.797468,49.8856176 534.376236,50.5281471 C535.228852,51.4783529 534.467519,52.4518529 534.231544,53.3758529 C534.000425,54.2668529 533.187624,54.5337647 532.418522,54.2027941 C531.94366,53.9970294 531.639709,53.3875 531.396937,53.1137941 L531.396937,53.1137941 Z" id="Shape" sketch:type="MSShapeGroup"></path>
        </g>
    </g>
</svg>